<svg xmlns="http://www.w3.org/2000/svg" xmlns:xlink="http://www.w3.org/1999/xlink" width="759.81" height="630.24" viewBox="0 0 759.81 630.24"><defs><style>.cls-1,.cls-12,.cls-15,.cls-16,.cls-23,.cls-24,.cls-27,.cls-28,.cls-29,.cls-31,.cls-33,.cls-5,.cls-6{fill:none;}.cls-2{fill:#defffb;}.cls-3{isolation:isolate;}.cls-4{clip-path:url(#clip-path);}.cls-29,.cls-5{stroke:#9b39f7;}.cls-11,.cls-12,.cls-15,.cls-16,.cls-18,.cls-23,.cls-24,.cls-27,.cls-28,.cls-29,.cls-30,.cls-31,.cls-33,.cls-5,.cls-9{stroke-miterlimit:10;}.cls-6{opacity:0.86;}.cls-7{opacity:0.28;}.cls-11,.cls-20,.cls-7{fill:url(#New_Pattern);}.cls-8{fill:#eae8ed;}.cls-9{fill:#cef7c8;}.cls-11,.cls-9{stroke:#9775c9;}.cls-11,.cls-15,.cls-18,.cls-23,.cls-24,.cls-27,.cls-29,.cls-30,.cls-31,.cls-9{stroke-width:0.5px;}.cls-10{opacity:0.59;mix-blend-mode:multiply;}.cls-12{stroke:#0d0029;}.cls-13{fill:#9b39f7;}.cls-14{clip-path:url(#clip-path-2);}.cls-15{stroke:#5a12a6;}.cls-16,.cls-18,.cls-23,.cls-24,.cls-30{stroke:#000;}.cls-16{stroke-width:0.25px;}.cls-17{fill:#0d0029;}.cls-18{fill:#f8f9ff;}.cls-19{fill:#48adbd;}.cls-21{fill:#60c4d1;}.cls-22{opacity:0.48;fill:url(#New_Pattern_4);}.cls-24{stroke-linecap:round;}.cls-25{fill:#ffd437;}.cls-26{clip-path:url(#clip-path-3);}.cls-27{stroke:#a45aed;}.cls-28{stroke:#fff;}.cls-30{fill:#fff;}.cls-31,.cls-33{stroke:#2e2e2e;}.cls-32{fill:#e3b839;}.cls-33{stroke-width:0.75px;stroke-dasharray:5 5;}.cls-34{fill:#2e2e2e;}</style><clipPath id="clip-path" transform="translate(6.57 74.55)"><rect class="cls-1" width="750" height="500"/></clipPath><pattern id="New_Pattern" data-name="New Pattern" width="67.57" height="67.57" patternUnits="userSpaceOnUse" viewBox="0 0 67.57 67.57"><rect class="cls-1" width="67.57" height="67.57"/><path d="M3.41,4.47a.38.38,0,0,1-.36.39.38.38,0,0,1-.35-.39.37.37,0,0,1,.35-.39A.37.37,0,0,1,3.41,4.47Z"/><path d="M10.07,4.47a.35.35,0,1,1-.7,0,.35.35,0,1,1,.7,0Z"/><path d="M16.74,4.47a.36.36,0,1,1-.71,0,.36.36,0,1,1,.71,0Z"/><path d="M23.4,4.47a.37.37,0,0,1-.35.39.38.38,0,0,1-.35-.39.37.37,0,0,1,.35-.39A.36.36,0,0,1,23.4,4.47Z"/><path d="M30.07,4.47a.38.38,0,0,1-.35.39.37.37,0,0,1-.35-.39.36.36,0,0,1,.35-.39A.37.37,0,0,1,30.07,4.47Z"/><path d="M36.74,4.47a.36.36,0,1,1-.71,0,.36.36,0,1,1,.71,0Z"/><path d="M43.4,4.47a.35.35,0,1,1-.7,0,.35.35,0,1,1,.7,0Z"/><path d="M50.07,4.47a.36.36,0,1,1-.71,0,.36.36,0,1,1,.71,0Z"/><path d="M56.73,4.47a.37.37,0,0,1-.35.39A.38.38,0,0,1,56,4.47a.37.37,0,0,1,.35-.39A.36.36,0,0,1,56.73,4.47Z"/><path d="M63.4,4.47a.38.38,0,0,1-.35.39.37.37,0,0,1-.35-.39.36.36,0,0,1,.35-.39A.37.37,0,0,1,63.4,4.47Z"/><path d="M3.41,11.14a.38.38,0,0,1-.36.39.4.4,0,0,1,0-.79A.38.38,0,0,1,3.41,11.14Z"/><path d="M10.07,11.14a.35.35,0,1,1-.35-.4A.38.38,0,0,1,10.07,11.14Z"/><path d="M16.74,11.14a.36.36,0,1,1-.71,0,.36.36,0,1,1,.71,0Z"/><path d="M23.4,11.14a.37.37,0,0,1-.35.39.4.4,0,1,1,.35-.39Z"/><path d="M30.07,11.14a.38.38,0,0,1-.35.39.4.4,0,0,1,0-.79A.38.38,0,0,1,30.07,11.14Z"/><path d="M36.74,11.14a.36.36,0,1,1-.36-.4A.38.38,0,0,1,36.74,11.14Z"/><path d="M43.4,11.14a.35.35,0,1,1-.35-.4A.38.38,0,0,1,43.4,11.14Z"/><path d="M50.07,11.14a.36.36,0,1,1-.71,0,.36.36,0,1,1,.71,0Z"/><path d="M56.73,11.14a.37.37,0,0,1-.35.39.4.4,0,1,1,.35-.39Z"/><path d="M63.4,11.14a.38.38,0,0,1-.35.39.4.4,0,0,1,0-.79A.38.38,0,0,1,63.4,11.14Z"/><path d="M3.41,17.8a.37.37,0,0,1-.36.39.37.37,0,0,1-.35-.39.38.38,0,0,1,.35-.39A.38.38,0,0,1,3.41,17.8Z"/><path d="M10.07,17.8a.35.35,0,1,1-.7,0,.35.35,0,1,1,.7,0Z"/><path d="M16.74,17.8a.36.36,0,1,1-.71,0,.36.36,0,1,1,.71,0Z"/><path d="M23.4,17.8a.36.36,0,0,1-.35.39.37.37,0,0,1-.35-.39.38.38,0,0,1,.35-.39A.37.37,0,0,1,23.4,17.8Z"/><path d="M30.07,17.8a.37.37,0,0,1-.35.39.36.36,0,0,1-.35-.39.37.37,0,0,1,.35-.39A.38.38,0,0,1,30.07,17.8Z"/><path d="M36.74,17.8a.36.36,0,1,1-.71,0,.36.36,0,1,1,.71,0Z"/><path d="M43.4,17.8a.35.35,0,1,1-.7,0,.35.35,0,1,1,.7,0Z"/><path d="M50.07,17.8a.36.36,0,1,1-.71,0,.36.36,0,1,1,.71,0Z"/><path d="M56.73,17.8a.36.36,0,0,1-.35.39A.37.37,0,0,1,56,17.8a.38.38,0,0,1,.35-.39A.37.37,0,0,1,56.73,17.8Z"/><path d="M63.4,17.8a.37.37,0,0,1-.35.39.36.36,0,0,1-.35-.39.37.37,0,0,1,.35-.39A.38.38,0,0,1,63.4,17.8Z"/><path d="M3.41,24.47a.38.38,0,0,1-.36.39.38.38,0,0,1-.35-.39.37.37,0,0,1,.35-.39A.37.37,0,0,1,3.41,24.47Z"/><path d="M10.07,24.47a.35.35,0,1,1-.7,0,.35.35,0,1,1,.7,0Z"/><path d="M16.74,24.47a.36.36,0,1,1-.71,0,.36.36,0,1,1,.71,0Z"/><path d="M23.4,24.47a.37.37,0,0,1-.35.39.38.38,0,0,1-.35-.39.37.37,0,0,1,.35-.39A.36.36,0,0,1,23.4,24.47Z"/><path d="M30.07,24.47a.38.38,0,0,1-.35.39.37.37,0,0,1-.35-.39.36.36,0,0,1,.35-.39A.37.37,0,0,1,30.07,24.47Z"/><path d="M36.74,24.47a.36.36,0,1,1-.71,0,.36.36,0,1,1,.71,0Z"/><path d="M43.4,24.47a.35.35,0,1,1-.7,0,.35.35,0,1,1,.7,0Z"/><path d="M50.07,24.47a.36.36,0,1,1-.71,0,.36.36,0,1,1,.71,0Z"/><path d="M56.73,24.47a.37.37,0,0,1-.35.39.38.38,0,0,1-.35-.39.37.37,0,0,1,.35-.39A.36.36,0,0,1,56.73,24.47Z"/><path d="M63.4,24.47a.38.38,0,0,1-.35.39.37.37,0,0,1-.35-.39.36.36,0,0,1,.35-.39A.37.37,0,0,1,63.4,24.47Z"/><path d="M3.41,31.14a.38.38,0,0,1-.36.39.38.38,0,0,1-.35-.39.37.37,0,0,1,.35-.39A.37.37,0,0,1,3.41,31.14Z"/><path d="M10.07,31.14a.35.35,0,1,1-.7,0,.35.35,0,1,1,.7,0Z"/><path d="M16.74,31.14a.36.36,0,1,1-.71,0,.36.36,0,1,1,.71,0Z"/><path d="M23.4,31.14a.37.37,0,0,1-.35.39.38.38,0,0,1-.35-.39.37.37,0,0,1,.35-.39A.36.36,0,0,1,23.4,31.14Z"/><path d="M30.07,31.14a.38.38,0,0,1-.35.39.37.37,0,0,1-.35-.39.36.36,0,0,1,.35-.39A.37.37,0,0,1,30.07,31.14Z"/><path d="M36.74,31.14a.36.36,0,1,1-.71,0,.36.36,0,1,1,.71,0Z"/><path d="M43.4,31.14a.35.35,0,1,1-.7,0,.35.35,0,1,1,.7,0Z"/><path d="M50.07,31.14a.36.36,0,1,1-.71,0,.36.36,0,1,1,.71,0Z"/><path d="M56.73,31.14a.37.37,0,0,1-.35.39.38.38,0,0,1-.35-.39.37.37,0,0,1,.35-.39A.36.36,0,0,1,56.73,31.14Z"/><path d="M63.4,31.14a.38.38,0,0,1-.35.39.37.37,0,0,1-.35-.39.36.36,0,0,1,.35-.39A.37.37,0,0,1,63.4,31.14Z"/><path d="M3.41,37.8a.37.37,0,0,1-.36.39.37.37,0,0,1-.35-.39.38.38,0,0,1,.35-.39A.38.38,0,0,1,3.41,37.8Z"/><path d="M10.07,37.8a.35.35,0,1,1-.7,0,.35.35,0,1,1,.7,0Z"/><path d="M16.74,37.8a.36.36,0,1,1-.71,0,.36.36,0,1,1,.71,0Z"/><path d="M23.4,37.8a.36.36,0,0,1-.35.39.37.37,0,0,1-.35-.39.38.38,0,0,1,.35-.39A.37.37,0,0,1,23.4,37.8Z"/><path d="M30.07,37.8a.37.37,0,0,1-.35.39.36.36,0,0,1-.35-.39.37.37,0,0,1,.35-.39A.38.38,0,0,1,30.07,37.8Z"/><path d="M36.74,37.8a.36.36,0,1,1-.71,0,.36.36,0,1,1,.71,0Z"/><path d="M43.4,37.8a.35.35,0,1,1-.7,0,.35.35,0,1,1,.7,0Z"/><path d="M50.07,37.8a.36.36,0,1,1-.71,0,.36.36,0,1,1,.71,0Z"/><path d="M56.73,37.8a.36.36,0,0,1-.35.39A.37.37,0,0,1,56,37.8a.38.38,0,0,1,.35-.39A.37.37,0,0,1,56.73,37.8Z"/><path d="M63.4,37.8a.37.37,0,0,1-.35.39.36.36,0,0,1-.35-.39.37.37,0,0,1,.35-.39A.38.38,0,0,1,63.4,37.8Z"/><path d="M3.41,44.47a.37.37,0,0,1-.36.39.39.39,0,0,1,0-.78A.37.37,0,0,1,3.41,44.47Z"/><path d="M10.07,44.47a.35.35,0,1,1-.35-.39A.37.37,0,0,1,10.07,44.47Z"/><path d="M16.74,44.47a.36.36,0,1,1-.35-.39A.37.37,0,0,1,16.74,44.47Z"/><path d="M23.4,44.47a.36.36,0,0,1-.35.39.39.39,0,0,1,0-.78A.36.36,0,0,1,23.4,44.47Z"/><path d="M30.07,44.47a.37.37,0,0,1-.35.39.39.39,0,0,1,0-.78A.37.37,0,0,1,30.07,44.47Z"/><path d="M36.74,44.47a.36.36,0,1,1-.36-.39A.37.37,0,0,1,36.74,44.47Z"/><path d="M43.4,44.47a.35.35,0,1,1-.35-.39A.37.37,0,0,1,43.4,44.47Z"/><path d="M50.07,44.47a.36.36,0,1,1-.35-.39A.37.37,0,0,1,50.07,44.47Z"/><path d="M56.73,44.47a.36.36,0,0,1-.35.39.39.39,0,0,1,0-.78A.36.36,0,0,1,56.73,44.47Z"/><path d="M63.4,44.47a.37.37,0,0,1-.35.39.39.39,0,0,1,0-.78A.37.37,0,0,1,63.4,44.47Z"/><path d="M3.41,51.14a.38.38,0,0,1-.36.39.38.38,0,0,1-.35-.39.37.37,0,0,1,.35-.39A.37.37,0,0,1,3.41,51.14Z"/><path d="M10.07,51.14a.35.35,0,1,1-.7,0,.35.35,0,1,1,.7,0Z"/><path d="M16.74,51.14a.36.36,0,1,1-.71,0,.36.36,0,1,1,.71,0Z"/><path d="M23.4,51.14a.37.37,0,0,1-.35.39.38.38,0,0,1-.35-.39.37.37,0,0,1,.35-.39A.36.36,0,0,1,23.4,51.14Z"/><path d="M30.07,51.14a.38.38,0,0,1-.35.39.37.37,0,0,1-.35-.39.36.36,0,0,1,.35-.39A.37.37,0,0,1,30.07,51.14Z"/><path d="M36.74,51.14a.36.36,0,1,1-.71,0,.36.36,0,1,1,.71,0Z"/><path d="M43.4,51.14a.35.35,0,1,1-.7,0,.35.35,0,1,1,.7,0Z"/><path d="M50.07,51.14a.36.36,0,1,1-.71,0,.36.36,0,1,1,.71,0Z"/><path d="M56.73,51.14a.37.37,0,0,1-.35.39.38.38,0,0,1-.35-.39.37.37,0,0,1,.35-.39A.36.36,0,0,1,56.73,51.14Z"/><path d="M63.4,51.14a.38.38,0,0,1-.35.39.37.37,0,0,1-.35-.39.36.36,0,0,1,.35-.39A.37.37,0,0,1,63.4,51.14Z"/><path d="M3.41,57.8a.37.37,0,0,1-.36.39.37.37,0,0,1-.35-.39.38.38,0,0,1,.35-.39A.38.38,0,0,1,3.41,57.8Z"/><path d="M10.07,57.8a.35.35,0,1,1-.7,0,.35.35,0,1,1,.7,0Z"/><path d="M16.74,57.8a.36.36,0,1,1-.71,0,.36.36,0,1,1,.71,0Z"/><path d="M23.4,57.8a.36.36,0,0,1-.35.39.37.37,0,0,1-.35-.39.38.38,0,0,1,.35-.39A.37.37,0,0,1,23.4,57.8Z"/><path d="M30.07,57.8a.37.37,0,0,1-.35.39.36.36,0,0,1-.35-.39.37.37,0,0,1,.35-.39A.38.38,0,0,1,30.07,57.8Z"/><path d="M36.74,57.8a.36.36,0,1,1-.71,0,.36.36,0,1,1,.71,0Z"/><path d="M43.4,57.8a.35.35,0,1,1-.7,0,.35.35,0,1,1,.7,0Z"/><path d="M50.07,57.8a.36.36,0,1,1-.71,0,.36.36,0,1,1,.71,0Z"/><path d="M56.73,57.8a.36.36,0,0,1-.35.39A.37.37,0,0,1,56,57.8a.38.38,0,0,1,.35-.39A.37.37,0,0,1,56.73,57.8Z"/><path d="M63.4,57.8a.37.37,0,0,1-.35.39.36.36,0,0,1-.35-.39.37.37,0,0,1,.35-.39A.38.38,0,0,1,63.4,57.8Z"/><path d="M3.41,64.47a.37.37,0,0,1-.36.39.37.37,0,0,1-.35-.39.38.38,0,0,1,.35-.39A.38.38,0,0,1,3.41,64.47Z"/><path d="M10.07,64.47a.35.35,0,1,1-.7,0,.35.35,0,1,1,.7,0Z"/><path d="M16.74,64.47a.36.36,0,1,1-.71,0,.36.36,0,1,1,.71,0Z"/><path d="M23.4,64.47a.36.36,0,0,1-.35.39.37.37,0,0,1-.35-.39.38.38,0,0,1,.35-.39A.37.37,0,0,1,23.4,64.47Z"/><path d="M30.07,64.47a.37.37,0,0,1-.35.39.36.36,0,0,1-.35-.39.37.37,0,0,1,.35-.39A.38.38,0,0,1,30.07,64.47Z"/><path d="M36.74,64.47a.36.36,0,1,1-.71,0,.36.36,0,1,1,.71,0Z"/><path d="M43.4,64.47a.35.35,0,1,1-.7,0,.35.35,0,1,1,.7,0Z"/><ellipse cx="49.72" cy="64.47" rx="0.35" ry="0.39"/><ellipse cx="56.38" cy="64.47" rx="0.35" ry="0.39"/><ellipse cx="63.05" cy="64.47" rx="0.35" ry="0.39"/></pattern><clipPath id="clip-path-2" transform="translate(6.57 74.55)"><path class="cls-1" d="M414.11,136.72c6.73-9.38,16.94-15.35,28.37-15.35s21.63,6,28.37,15.35Z"/></clipPath><pattern id="New_Pattern_4" data-name="New Pattern 4" width="67.57" height="67.57" patternUnits="userSpaceOnUse" viewBox="0 0 67.57 67.57"><rect class="cls-1" width="67.57" height="67.57"/><path class="cls-2" d="M3.41,4.47a.38.38,0,0,1-.36.39.38.38,0,0,1-.35-.39.37.37,0,0,1,.35-.39A.37.37,0,0,1,3.41,4.47Z"/><path class="cls-2" d="M10.07,4.47a.35.35,0,1,1-.7,0,.35.35,0,1,1,.7,0Z"/><path class="cls-2" d="M16.74,4.47a.36.36,0,1,1-.71,0,.36.36,0,1,1,.71,0Z"/><path class="cls-2" d="M23.4,4.47a.37.37,0,0,1-.35.39.38.38,0,0,1-.35-.39.37.37,0,0,1,.35-.39A.36.36,0,0,1,23.4,4.47Z"/><path class="cls-2" d="M30.07,4.47a.38.38,0,0,1-.35.39.37.37,0,0,1-.35-.39.36.36,0,0,1,.35-.39A.37.37,0,0,1,30.07,4.47Z"/><path class="cls-2" d="M36.74,4.47a.36.36,0,1,1-.71,0,.36.36,0,1,1,.71,0Z"/><path class="cls-2" d="M43.4,4.47a.35.35,0,1,1-.7,0,.35.35,0,1,1,.7,0Z"/><path class="cls-2" d="M50.07,4.47a.36.36,0,1,1-.71,0,.36.36,0,1,1,.71,0Z"/><path class="cls-2" d="M56.73,4.47a.37.37,0,0,1-.35.39A.38.38,0,0,1,56,4.47a.37.37,0,0,1,.35-.39A.36.36,0,0,1,56.73,4.47Z"/><path class="cls-2" d="M63.4,4.47a.38.38,0,0,1-.35.39.37.37,0,0,1-.35-.39.36.36,0,0,1,.35-.39A.37.37,0,0,1,63.4,4.47Z"/><path class="cls-2" d="M3.41,11.14a.38.38,0,0,1-.36.39.4.4,0,0,1,0-.79A.38.38,0,0,1,3.41,11.14Z"/><path class="cls-2" d="M10.07,11.14a.35.35,0,1,1-.35-.4A.38.38,0,0,1,10.07,11.14Z"/><path class="cls-2" d="M16.74,11.14a.36.36,0,1,1-.71,0,.36.36,0,1,1,.71,0Z"/><path class="cls-2" d="M23.4,11.14a.37.37,0,0,1-.35.39.4.4,0,1,1,.35-.39Z"/><path class="cls-2" d="M30.07,11.14a.38.38,0,0,1-.35.39.4.4,0,0,1,0-.79A.38.38,0,0,1,30.07,11.14Z"/><path class="cls-2" d="M36.74,11.14a.36.36,0,1,1-.36-.4A.38.38,0,0,1,36.74,11.14Z"/><path class="cls-2" d="M43.4,11.14a.35.35,0,1,1-.35-.4A.38.38,0,0,1,43.4,11.14Z"/><path class="cls-2" d="M50.07,11.14a.36.36,0,1,1-.71,0,.36.36,0,1,1,.71,0Z"/><path class="cls-2" d="M56.73,11.14a.37.37,0,0,1-.35.39.4.4,0,1,1,.35-.39Z"/><path class="cls-2" d="M63.4,11.14a.38.38,0,0,1-.35.39.4.4,0,0,1,0-.79A.38.38,0,0,1,63.4,11.14Z"/><path class="cls-2" d="M3.41,17.8a.37.37,0,0,1-.36.39.37.37,0,0,1-.35-.39.38.38,0,0,1,.35-.39A.38.38,0,0,1,3.41,17.8Z"/><path class="cls-2" d="M10.07,17.8a.35.35,0,1,1-.7,0,.35.35,0,1,1,.7,0Z"/><path class="cls-2" d="M16.74,17.8a.36.36,0,1,1-.71,0,.36.36,0,1,1,.71,0Z"/><path class="cls-2" d="M23.4,17.8a.36.36,0,0,1-.35.39.37.37,0,0,1-.35-.39.38.38,0,0,1,.35-.39A.37.37,0,0,1,23.4,17.8Z"/><path class="cls-2" d="M30.07,17.8a.37.37,0,0,1-.35.39.36.36,0,0,1-.35-.39.37.37,0,0,1,.35-.39A.38.38,0,0,1,30.07,17.8Z"/><path class="cls-2" d="M36.74,17.8a.36.36,0,1,1-.71,0,.36.36,0,1,1,.71,0Z"/><path class="cls-2" d="M43.4,17.8a.35.35,0,1,1-.7,0,.35.35,0,1,1,.7,0Z"/><path class="cls-2" d="M50.07,17.8a.36.36,0,1,1-.71,0,.36.36,0,1,1,.71,0Z"/><path class="cls-2" d="M56.73,17.8a.36.36,0,0,1-.35.39A.37.37,0,0,1,56,17.8a.38.38,0,0,1,.35-.39A.37.37,0,0,1,56.73,17.8Z"/><path class="cls-2" d="M63.4,17.8a.37.37,0,0,1-.35.39.36.36,0,0,1-.35-.39.37.37,0,0,1,.35-.39A.38.38,0,0,1,63.4,17.8Z"/><path class="cls-2" d="M3.41,24.47a.38.38,0,0,1-.36.39.38.38,0,0,1-.35-.39.37.37,0,0,1,.35-.39A.37.37,0,0,1,3.41,24.47Z"/><path class="cls-2" d="M10.07,24.47a.35.35,0,1,1-.7,0,.35.35,0,1,1,.7,0Z"/><path class="cls-2" d="M16.74,24.47a.36.36,0,1,1-.71,0,.36.36,0,1,1,.71,0Z"/><path class="cls-2" d="M23.4,24.47a.37.37,0,0,1-.35.39.38.38,0,0,1-.35-.39.37.37,0,0,1,.35-.39A.36.36,0,0,1,23.4,24.47Z"/><path class="cls-2" d="M30.07,24.47a.38.38,0,0,1-.35.39.37.37,0,0,1-.35-.39.36.36,0,0,1,.35-.39A.37.37,0,0,1,30.07,24.47Z"/><path class="cls-2" d="M36.74,24.47a.36.36,0,1,1-.71,0,.36.36,0,1,1,.71,0Z"/><path class="cls-2" d="M43.4,24.47a.35.35,0,1,1-.7,0,.35.35,0,1,1,.7,0Z"/><path class="cls-2" d="M50.07,24.47a.36.36,0,1,1-.71,0,.36.36,0,1,1,.71,0Z"/><path class="cls-2" d="M56.73,24.47a.37.37,0,0,1-.35.39.38.38,0,0,1-.35-.39.37.37,0,0,1,.35-.39A.36.36,0,0,1,56.73,24.47Z"/><path class="cls-2" d="M63.4,24.47a.38.38,0,0,1-.35.39.37.37,0,0,1-.35-.39.36.36,0,0,1,.35-.39A.37.37,0,0,1,63.4,24.47Z"/><path class="cls-2" d="M3.41,31.14a.38.38,0,0,1-.36.39.38.38,0,0,1-.35-.39.37.37,0,0,1,.35-.39A.37.37,0,0,1,3.41,31.14Z"/><path class="cls-2" d="M10.07,31.14a.35.35,0,1,1-.7,0,.35.35,0,1,1,.7,0Z"/><path class="cls-2" d="M16.74,31.14a.36.36,0,1,1-.71,0,.36.36,0,1,1,.71,0Z"/><path class="cls-2" d="M23.4,31.14a.37.37,0,0,1-.35.39.38.38,0,0,1-.35-.39.37.37,0,0,1,.35-.39A.36.36,0,0,1,23.4,31.14Z"/><path class="cls-2" d="M30.07,31.14a.38.38,0,0,1-.35.39.37.37,0,0,1-.35-.39.36.36,0,0,1,.35-.39A.37.37,0,0,1,30.07,31.14Z"/><path class="cls-2" d="M36.74,31.14a.36.36,0,1,1-.71,0,.36.36,0,1,1,.71,0Z"/><path class="cls-2" d="M43.4,31.14a.35.35,0,1,1-.7,0,.35.35,0,1,1,.7,0Z"/><path class="cls-2" d="M50.07,31.14a.36.36,0,1,1-.71,0,.36.36,0,1,1,.71,0Z"/><path class="cls-2" d="M56.73,31.14a.37.37,0,0,1-.35.39.38.38,0,0,1-.35-.39.37.37,0,0,1,.35-.39A.36.36,0,0,1,56.73,31.14Z"/><path class="cls-2" d="M63.4,31.14a.38.38,0,0,1-.35.39.37.37,0,0,1-.35-.39.36.36,0,0,1,.35-.39A.37.37,0,0,1,63.4,31.14Z"/><path class="cls-2" d="M3.41,37.8a.37.37,0,0,1-.36.39.37.37,0,0,1-.35-.39.38.38,0,0,1,.35-.39A.38.38,0,0,1,3.41,37.8Z"/><path class="cls-2" d="M10.07,37.8a.35.35,0,1,1-.7,0,.35.35,0,1,1,.7,0Z"/><path class="cls-2" d="M16.74,37.8a.36.36,0,1,1-.71,0,.36.36,0,1,1,.71,0Z"/><path class="cls-2" d="M23.4,37.8a.36.36,0,0,1-.35.39.37.37,0,0,1-.35-.39.38.38,0,0,1,.35-.39A.37.37,0,0,1,23.4,37.8Z"/><path class="cls-2" d="M30.07,37.8a.37.37,0,0,1-.35.39.36.36,0,0,1-.35-.39.37.37,0,0,1,.35-.39A.38.38,0,0,1,30.07,37.8Z"/><path class="cls-2" d="M36.74,37.8a.36.36,0,1,1-.71,0,.36.36,0,1,1,.71,0Z"/><path class="cls-2" d="M43.4,37.8a.35.35,0,1,1-.7,0,.35.35,0,1,1,.7,0Z"/><path class="cls-2" d="M50.07,37.8a.36.36,0,1,1-.71,0,.36.36,0,1,1,.71,0Z"/><path class="cls-2" d="M56.73,37.8a.36.36,0,0,1-.35.39A.37.37,0,0,1,56,37.8a.38.38,0,0,1,.35-.39A.37.37,0,0,1,56.73,37.8Z"/><path class="cls-2" d="M63.4,37.8a.37.37,0,0,1-.35.39.36.36,0,0,1-.35-.39.37.37,0,0,1,.35-.39A.38.38,0,0,1,63.4,37.8Z"/><path class="cls-2" d="M3.41,44.47a.37.37,0,0,1-.36.39.39.39,0,0,1,0-.78A.37.37,0,0,1,3.41,44.47Z"/><path class="cls-2" d="M10.07,44.47a.35.35,0,1,1-.35-.39A.37.37,0,0,1,10.07,44.47Z"/><path class="cls-2" d="M16.74,44.47a.36.36,0,1,1-.35-.39A.37.37,0,0,1,16.74,44.47Z"/><path class="cls-2" d="M23.4,44.47a.36.36,0,0,1-.35.39.39.39,0,0,1,0-.78A.36.36,0,0,1,23.4,44.47Z"/><path class="cls-2" d="M30.07,44.47a.37.37,0,0,1-.35.39.39.39,0,0,1,0-.78A.37.37,0,0,1,30.07,44.47Z"/><path class="cls-2" d="M36.74,44.47a.36.36,0,1,1-.36-.39A.37.37,0,0,1,36.74,44.47Z"/><path class="cls-2" d="M43.4,44.47a.35.35,0,1,1-.35-.39A.37.37,0,0,1,43.4,44.47Z"/><path class="cls-2" d="M50.07,44.47a.36.36,0,1,1-.35-.39A.37.37,0,0,1,50.07,44.47Z"/><path class="cls-2" d="M56.73,44.47a.36.36,0,0,1-.35.39.39.39,0,0,1,0-.78A.36.36,0,0,1,56.73,44.47Z"/><path class="cls-2" d="M63.4,44.47a.37.37,0,0,1-.35.39.39.39,0,0,1,0-.78A.37.37,0,0,1,63.4,44.47Z"/><path class="cls-2" d="M3.41,51.14a.38.38,0,0,1-.36.39.38.38,0,0,1-.35-.39.37.37,0,0,1,.35-.39A.37.37,0,0,1,3.41,51.14Z"/><path class="cls-2" d="M10.07,51.14a.35.35,0,1,1-.7,0,.35.35,0,1,1,.7,0Z"/><path class="cls-2" d="M16.74,51.14a.36.36,0,1,1-.71,0,.36.36,0,1,1,.71,0Z"/><path class="cls-2" d="M23.4,51.14a.37.37,0,0,1-.35.39.38.38,0,0,1-.35-.39.37.37,0,0,1,.35-.39A.36.36,0,0,1,23.4,51.14Z"/><path class="cls-2" d="M30.07,51.14a.38.38,0,0,1-.35.39.37.37,0,0,1-.35-.39.36.36,0,0,1,.35-.39A.37.37,0,0,1,30.07,51.14Z"/><path class="cls-2" d="M36.74,51.14a.36.36,0,1,1-.71,0,.36.36,0,1,1,.71,0Z"/><path class="cls-2" d="M43.4,51.14a.35.35,0,1,1-.7,0,.35.35,0,1,1,.7,0Z"/><path class="cls-2" d="M50.07,51.14a.36.36,0,1,1-.71,0,.36.36,0,1,1,.71,0Z"/><path class="cls-2" d="M56.73,51.14a.37.37,0,0,1-.35.39.38.38,0,0,1-.35-.39.37.37,0,0,1,.35-.39A.36.36,0,0,1,56.73,51.14Z"/><path class="cls-2" d="M63.4,51.14a.38.38,0,0,1-.35.39.37.37,0,0,1-.35-.39.36.36,0,0,1,.35-.39A.37.37,0,0,1,63.4,51.14Z"/><path class="cls-2" d="M3.41,57.8a.37.37,0,0,1-.36.39.37.37,0,0,1-.35-.39.38.38,0,0,1,.35-.39A.38.38,0,0,1,3.41,57.8Z"/><path class="cls-2" d="M10.07,57.8a.35.35,0,1,1-.7,0,.35.35,0,1,1,.7,0Z"/><path class="cls-2" d="M16.74,57.8a.36.36,0,1,1-.71,0,.36.36,0,1,1,.71,0Z"/><path class="cls-2" d="M23.4,57.8a.36.36,0,0,1-.35.39.37.37,0,0,1-.35-.39.38.38,0,0,1,.35-.39A.37.37,0,0,1,23.4,57.8Z"/><path class="cls-2" d="M30.07,57.8a.37.37,0,0,1-.35.39.36.36,0,0,1-.35-.39.37.37,0,0,1,.35-.39A.38.38,0,0,1,30.07,57.8Z"/><path class="cls-2" d="M36.74,57.8a.36.36,0,1,1-.71,0,.36.36,0,1,1,.71,0Z"/><path class="cls-2" d="M43.4,57.8a.35.35,0,1,1-.7,0,.35.35,0,1,1,.7,0Z"/><path class="cls-2" d="M50.07,57.8a.36.36,0,1,1-.71,0,.36.36,0,1,1,.71,0Z"/><path class="cls-2" d="M56.73,57.8a.36.36,0,0,1-.35.39A.37.37,0,0,1,56,57.8a.38.38,0,0,1,.35-.39A.37.37,0,0,1,56.73,57.8Z"/><path class="cls-2" d="M63.4,57.8a.37.37,0,0,1-.35.39.36.36,0,0,1-.35-.39.37.37,0,0,1,.35-.39A.38.38,0,0,1,63.4,57.8Z"/><path class="cls-2" d="M3.41,64.47a.37.37,0,0,1-.36.39.37.37,0,0,1-.35-.39.38.38,0,0,1,.35-.39A.38.38,0,0,1,3.41,64.47Z"/><path class="cls-2" d="M10.07,64.47a.35.35,0,1,1-.7,0,.35.35,0,1,1,.7,0Z"/><path class="cls-2" d="M16.74,64.47a.36.36,0,1,1-.71,0,.36.36,0,1,1,.71,0Z"/><path class="cls-2" d="M23.4,64.47a.36.36,0,0,1-.35.39.37.37,0,0,1-.35-.39.38.38,0,0,1,.35-.39A.37.37,0,0,1,23.4,64.47Z"/><path class="cls-2" d="M30.07,64.47a.37.37,0,0,1-.35.39.36.36,0,0,1-.35-.39.37.37,0,0,1,.35-.39A.38.38,0,0,1,30.07,64.47Z"/><path class="cls-2" d="M36.74,64.47a.36.36,0,1,1-.71,0,.36.36,0,1,1,.71,0Z"/><path class="cls-2" d="M43.4,64.47a.35.35,0,1,1-.7,0,.35.35,0,1,1,.7,0Z"/><ellipse class="cls-2" cx="49.72" cy="64.47" rx="0.35" ry="0.39"/><ellipse class="cls-2" cx="56.38" cy="64.47" rx="0.35" ry="0.39"/><ellipse class="cls-2" cx="63.05" cy="64.47" rx="0.35" ry="0.39"/></pattern><clipPath id="clip-path-3" transform="translate(6.57 74.55)"><path class="cls-1" d="M669.31,378.37H628.18v5.83h3.3l2.68,17.25c1.25,8,7.4,13.89,14.59,13.89h0c7.18,0,13.33-5.86,14.58-13.89L666,384.2h3.3Z"/></clipPath></defs><g class="cls-3"><g id="OBJECTS"><g class="cls-4"><polyline class="cls-5" points="488.33 548.8 499.98 538.28 508.51 548.8 519.59 538.28 530.41 548.8 539.67 538.28 549.92 549.92"/><polyline class="cls-5" points="243.37 485.9 251.79 477.09 243.37 465.64 251.79 454.47 243.37 444.9 252.7 434.31"/><rect class="cls-6" x="9.81" y="74.79" width="750" height="500"/><path class="cls-7" d="M479.46,141.85c-19.1,11.67-37.08,26.31-50.89,45.3C416.6,203.6,408,222.94,401.5,243c-5.64,17.26-9.87,35.41-9.6,53.83.48,32.85,15.66,64.12,37.41,85.78s49.57,34.38,78,40.72c33.3,7.43,69.19,6.17,99.43-11.32,35-20.23,61-58.06,80.3-95.94,19.9-39.16,25.08-86.39,10-129a135.25,135.25,0,0,0-5.66-13.58,117.94,117.94,0,0,0-65.43-59.35C577.07,96.48,523,115.25,479.46,141.85Z" transform="translate(6.57 74.55)"/><path class="cls-8" d="M638.71,429.88a45.39,45.39,0,0,1-14.58,1.92c-27.08-.76-54.5.81-81.67,1.06L413.83,434c-12.71.12-25.91.11-37.42-6-14.43-7.7-25.27-26.89-10.35-39.3,13.8-11.49,30.69-16.51,47.58-17.78,19.68-1.49,39.39,1.57,59.11,2.09,30.82.81,61.47-4.55,92.23-6.62,18.21-1.23,36.47-1.29,54.71-1.36,7.6,0,15.32,0,22.63,2.33,10.15,3.29,22.63,9.81,23.72,22.53s-6.85,27.55-15.89,34.25A38,38,0,0,1,638.71,429.88Z" transform="translate(6.57 74.55)"/><line class="cls-9" x1="644.6" y1="454.85" x2="428.91" y2="454.85"/><g class="cls-10"><path class="cls-11" d="M638.67,408c2.63.72,1.9,5.36,0,7.59-5.64,6.73-14.79,7.22-23,7.27l-101.59.58c-15.47.09-32.44,2.41-47.72-.34-14.13-2.54-28.44.59-42.81-.78-11.56-1.1-23.42-4.55-33-12.27-6.68-5.39-7.84-14.65,1.83-18,15.07-5.28,31.21-4.21,46.95-3.09" transform="translate(6.57 74.55)"/></g><path class="cls-12" d="M403.87,392.91s-.46-207-.11-275.72c.06-12.09,8.71-21.85,19.36-21.85h0c10.69,0,19.36,9.84,19.36,22v6.1" transform="translate(6.57 74.55)"/><path class="cls-13" d="M416.49,134.46c6.73-9.38,16.94-15.35,28.37-15.35s21.63,6,28.37,15.35Z" transform="translate(6.57 74.55)"/><g class="cls-14"><line class="cls-15" x1="447.65" y1="164.9" x2="453.03" y2="164.88"/><line class="cls-15" x1="453.2" y1="170.39" x2="458.58" y2="170.37"/><line class="cls-15" x1="458.76" y1="175.89" x2="464.14" y2="175.87"/><line class="cls-15" x1="464.31" y1="181.38" x2="469.69" y2="181.36"/><line class="cls-15" x1="469.86" y1="186.88" x2="475.24" y2="186.86"/><line class="cls-15" x1="475.42" y1="192.37" x2="480.8" y2="192.35"/><line class="cls-15" x1="480.97" y1="197.87" x2="486.35" y2="197.85"/><line class="cls-15" x1="486.53" y1="203.36" x2="491.91" y2="203.34"/><line class="cls-15" x1="492.08" y1="208.86" x2="497.46" y2="208.84"/><line class="cls-15" x1="437.36" y1="164.93" x2="442.74" y2="164.91"/><line class="cls-15" x1="442.91" y1="170.43" x2="448.29" y2="170.41"/><line class="cls-15" x1="448.47" y1="175.92" x2="453.85" y2="175.9"/><line class="cls-15" x1="454.02" y1="181.42" x2="459.4" y2="181.4"/><line class="cls-15" x1="459.57" y1="186.91" x2="464.96" y2="186.89"/><line class="cls-15" x1="465.13" y1="192.41" x2="470.51" y2="192.39"/><line class="cls-15" x1="470.68" y1="197.9" x2="476.06" y2="197.88"/><line class="cls-15" x1="476.24" y1="203.4" x2="481.62" y2="203.38"/><line class="cls-15" x1="481.79" y1="208.89" x2="487.17" y2="208.87"/><line class="cls-15" x1="487.34" y1="214.39" x2="492.73" y2="214.37"/><line class="cls-15" x1="432.62" y1="170.47" x2="438" y2="170.45"/><line class="cls-15" x1="438.18" y1="175.96" x2="443.56" y2="175.94"/><line class="cls-15" x1="443.73" y1="181.46" x2="449.11" y2="181.44"/><line class="cls-15" x1="449.28" y1="186.95" x2="454.67" y2="186.93"/><line class="cls-15" x1="454.84" y1="192.44" x2="460.22" y2="192.43"/><line class="cls-15" x1="460.39" y1="197.94" x2="465.77" y2="197.92"/><line class="cls-15" x1="465.95" y1="203.43" x2="471.33" y2="203.42"/><line class="cls-15" x1="471.5" y1="208.93" x2="476.88" y2="208.91"/><line class="cls-15" x1="477.05" y1="214.42" x2="482.44" y2="214.41"/><line class="cls-15" x1="482.61" y1="219.92" x2="487.99" y2="219.9"/><line class="cls-15" x1="427.89" y1="176" x2="433.27" y2="175.98"/><line class="cls-15" x1="433.44" y1="181.49" x2="438.82" y2="181.47"/><line class="cls-15" x1="439" y1="186.99" x2="444.38" y2="186.97"/><line class="cls-15" x1="444.55" y1="192.48" x2="449.93" y2="192.46"/><line class="cls-15" x1="450.1" y1="197.98" x2="455.48" y2="197.96"/><line class="cls-15" x1="455.66" y1="203.47" x2="461.04" y2="203.45"/><line class="cls-15" x1="461.21" y1="208.97" x2="466.59" y2="208.95"/><line class="cls-15" x1="466.77" y1="214.46" x2="472.15" y2="214.44"/><line class="cls-15" x1="472.32" y1="219.96" x2="477.7" y2="219.94"/><line class="cls-15" x1="477.87" y1="225.45" x2="483.25" y2="225.43"/><line class="cls-15" x1="423.15" y1="181.53" x2="428.53" y2="181.51"/><line class="cls-15" x1="428.71" y1="187.02" x2="434.09" y2="187"/><line class="cls-15" x1="434.26" y1="192.52" x2="439.64" y2="192.5"/><line class="cls-15" x1="439.81" y1="198.01" x2="445.19" y2="197.99"/><line class="cls-15" x1="445.37" y1="203.51" x2="450.75" y2="203.49"/><line class="cls-15" x1="450.92" y1="209" x2="456.3" y2="208.98"/><line class="cls-15" x1="456.48" y1="214.5" x2="461.86" y2="214.48"/><line class="cls-15" x1="462.03" y1="219.99" x2="467.41" y2="219.97"/><line class="cls-15" x1="467.58" y1="225.49" x2="472.97" y2="225.47"/><line class="cls-15" x1="473.14" y1="230.98" x2="478.52" y2="230.96"/><line class="cls-15" x1="418.42" y1="187.06" x2="423.8" y2="187.04"/><line class="cls-15" x1="423.97" y1="192.55" x2="429.35" y2="192.54"/><line class="cls-15" x1="429.52" y1="198.05" x2="434.91" y2="198.03"/><line class="cls-15" x1="435.08" y1="203.54" x2="440.46" y2="203.53"/><line class="cls-15" x1="440.63" y1="209.04" x2="446.01" y2="209.02"/><line class="cls-15" x1="446.19" y1="214.53" x2="451.57" y2="214.52"/><line class="cls-15" x1="451.74" y1="220.03" x2="457.12" y2="220.01"/><line class="cls-15" x1="457.29" y1="225.52" x2="462.68" y2="225.5"/><line class="cls-15" x1="462.85" y1="231.02" x2="468.23" y2="231"/><line class="cls-15" x1="468.4" y1="236.51" x2="473.78" y2="236.49"/><line class="cls-15" x1="413.68" y1="192.59" x2="419.06" y2="192.57"/><line class="cls-15" x1="419.23" y1="198.09" x2="424.62" y2="198.07"/><line class="cls-15" x1="424.79" y1="203.58" x2="430.17" y2="203.56"/><line class="cls-15" x1="430.34" y1="209.08" x2="435.72" y2="209.06"/><line class="cls-15" x1="435.9" y1="214.57" x2="441.28" y2="214.55"/><line class="cls-15" x1="441.45" y1="220.07" x2="446.83" y2="220.05"/><line class="cls-15" x1="447" y1="225.56" x2="452.39" y2="225.54"/><line class="cls-15" x1="452.56" y1="231.06" x2="457.94" y2="231.04"/><line class="cls-15" x1="458.11" y1="236.55" x2="463.49" y2="236.53"/><line class="cls-15" x1="463.67" y1="242.05" x2="469.05" y2="242.03"/><line class="cls-15" x1="408.95" y1="198.12" x2="414.33" y2="198.1"/><line class="cls-15" x1="414.5" y1="203.62" x2="419.88" y2="203.6"/><line class="cls-15" x1="420.05" y1="209.11" x2="425.43" y2="209.09"/><line class="cls-15" x1="425.61" y1="214.61" x2="430.99" y2="214.59"/><line class="cls-15" x1="431.16" y1="220.1" x2="436.54" y2="220.08"/><line class="cls-15" x1="436.72" y1="225.6" x2="442.1" y2="225.58"/><line class="cls-15" x1="442.27" y1="231.09" x2="447.65" y2="231.07"/><line class="cls-15" x1="447.82" y1="236.59" x2="453.2" y2="236.57"/><line class="cls-15" x1="453.38" y1="242.08" x2="458.76" y2="242.06"/><line class="cls-15" x1="458.93" y1="247.58" x2="464.31" y2="247.56"/><line class="cls-15" x1="404.21" y1="203.65" x2="409.59" y2="203.63"/><line class="cls-15" x1="409.76" y1="209.15" x2="415.15" y2="209.13"/><line class="cls-15" x1="415.32" y1="214.64" x2="420.7" y2="214.62"/><line class="cls-15" x1="420.87" y1="220.14" x2="426.25" y2="220.12"/><line class="cls-15" x1="426.43" y1="225.63" x2="431.81" y2="225.61"/><line class="cls-15" x1="431.98" y1="231.13" x2="437.36" y2="231.11"/><line class="cls-15" x1="437.53" y1="236.62" x2="442.92" y2="236.6"/><line class="cls-15" x1="443.09" y1="242.12" x2="448.47" y2="242.1"/><line class="cls-15" x1="448.64" y1="247.61" x2="454.02" y2="247.59"/><line class="cls-15" x1="454.2" y1="253.11" x2="459.58" y2="253.09"/><line class="cls-15" x1="399.47" y1="209.19" x2="404.86" y2="209.17"/><line class="cls-15" x1="405.03" y1="214.68" x2="410.41" y2="214.66"/><line class="cls-15" x1="410.58" y1="220.18" x2="415.96" y2="220.16"/><line class="cls-15" x1="416.14" y1="225.67" x2="421.52" y2="225.65"/><line class="cls-15" x1="421.69" y1="231.16" x2="427.07" y2="231.15"/><line class="cls-15" x1="427.24" y1="236.66" x2="432.63" y2="236.64"/><line class="cls-15" x1="432.8" y1="242.15" x2="438.18" y2="242.14"/><line class="cls-15" x1="438.35" y1="247.65" x2="443.73" y2="247.63"/><line class="cls-15" x1="443.91" y1="253.14" x2="449.29" y2="253.13"/></g><path class="cls-16" d="M414.11,136.72c6.73-9.38,16.94-15.35,28.37-15.35s21.63,6,28.37,15.35Z" transform="translate(6.57 74.55)"/><rect class="cls-17" x="397.39" y="467.46" width="26.12" height="1.3"/><polygon class="cls-18" points="467.52 443.68 455.33 481.98 451.37 481.98 455.39 439.48 467.52 443.68"/><polygon class="cls-18" points="590.73 443.68 602.92 481.98 606.88 481.98 602.87 439.48 590.73 443.68"/><path class="cls-19" d="M575.42,152.35a133.37,133.37,0,0,1-28.26,3.2c-9.95.13-19.81-.82-29.73-1.39s-19.58,2.18-29.42,1.54a24.12,24.12,0,0,1-6.71-1.21,29.93,29.93,0,0,1-4.55-2.23L444.8,378.54l159.44-2.05L577.18,151.9C576.59,152.05,576,152.21,575.42,152.35Z" transform="translate(6.57 74.55)"/><path class="cls-20" d="M593.42,375.35H454c-4.19,0-7.58-3.86-7.58-8.62h0c0-4.75,3.39-8.61,7.58-8.61H593.42c4.19,0,7.58,3.86,7.58,8.61h0C601,371.49,597.61,375.35,593.42,375.35Z" transform="translate(6.57 74.55)"/><path class="cls-20" d="M591.11,296.87,570.88,154.16c-.56.12-1.1.25-1.66.36a146.24,146.24,0,0,1-26.5,2.55c-9.32.1-18.57-.65-27.87-1.11s-18.37,1.74-27.59,1.23a25.61,25.61,0,0,1-6.29-1,30.7,30.7,0,0,1-4.27-1.77L453,296.87Z" transform="translate(6.57 74.55)"/><path class="cls-21" d="M476.5,148.06a7.42,7.42,0,0,0-4.95-1.55c-5.05.47-4.94,7.31-6.28,11.66q-1.9,6.15-3.82,12.32-4.89,15.81-9.79,31.62l-18.57,60-37,44a11.41,11.41,0,0,0,.77,15.26,33.3,33.3,0,0,0,3,2.62c10.13,7.53,15.83,1.08,33.88,17.87s11.08,36.71,11.08,36.71l29.24-76,.63-13.11,3.75-77.11,1.83-37.72.63-12.88c.26-5.39.95-8.93-3.32-12.83C477.22,148.62,476.87,148.33,476.5,148.06Z" transform="translate(6.57 74.55)"/><path class="cls-21" d="M651,306.08l-37-44L596.79,206.7,585.9,171.51l-3.9-12.6c-1.46-4.71-2-8.94-7.44-8.73-9.89.39-8.71,5.16-8.32,13.23q.72,14.76,1.43,29.52,1.89,38.81,3.77,77.62l1.56,32,29.23,76s-7-19.92,11.08-36.71a62.89,62.89,0,0,1,18.32-12.32c3-1.26,6.31-1.46,9.43-2.71a27.51,27.51,0,0,0,9.74-6.09C654.47,316.93,654.26,310,651,306.08Z" transform="translate(6.57 74.55)"/><path class="cls-22" d="M476.05,148a7,7,0,0,0-4.64-1.47c-4.73.45-4.62,6.86-5.89,10.94L462,169q-4.59,14.83-9.19,29.66-8.7,28.13-17.42,56.27l-34.7,41.23a10.69,10.69,0,0,0,.73,14.31,33.41,33.41,0,0,0,2.79,2.46c9.51,7.05,14.85,1,31.78,16.76s10.39,34.42,10.39,34.42l27.42-71.25q.28-6.14.59-12.29l3.51-72.31q.87-17.69,1.72-35.37.3-6,.59-12.08c.24-5.06.89-8.37-3.11-12A9.47,9.47,0,0,0,476.05,148Z" transform="translate(6.57 74.55)"/><path class="cls-22" d="M640.06,295.34l-34.7-41.23q-8.05-26-16.09-52-5.12-16.5-10.22-33l-3.66-11.82c-1.37-4.42-1.85-8.38-7-8.19-9.27.36-8.17,4.84-7.8,12.41L562,189.23q1.77,36.39,3.53,72.78.74,15,1.46,30l27.42,71.25s-6.53-18.68,10.39-34.43a58.81,58.81,0,0,1,17.18-11.55c2.86-1.19,5.91-1.37,8.84-2.54a25.88,25.88,0,0,0,9.14-5.72C643.35,305.51,643.16,299,640.06,295.34Z" transform="translate(6.57 74.55)"/><path class="cls-23" d="M613,261.75c-7.08,1.47-14.18,3.53-20.43,7.58a32.71,32.71,0,0,0-13.87,18.06" transform="translate(6.57 74.55)"/><path class="cls-24" d="M590.67,349.13a5.06,5.06,0,0,1,4-4.38" transform="translate(6.57 74.55)"/><path class="cls-23" d="M431.58,263.1c7.93-1.2,16.55-2.26,23.46,2.33,5.46,3.63,8.84,10.15,11.86,16.45" transform="translate(6.57 74.55)"/><path class="cls-23" d="M392.87,313a11.07,11.07,0,0,1,2.69-3.9c4.22-4,10.58-3.82,15.58-1.26s9,7.12,12.8,11.57l10.44,12.12" transform="translate(6.57 74.55)"/><path class="cls-23" d="M653.12,311.59a4.6,4.6,0,0,0-2.28-3.49c-3.65-2.15-9.33-.19-12.93,1.33a36.54,36.54,0,0,0-11,7.42c-5.69,5.46-10.08,12.46-13.88,19.74" transform="translate(6.57 74.55)"/><line class="cls-23" x1="673.6" y1="488.62" x2="652.53" y2="488.62"/><path d="M649,355.88c0-.23,0-.47,0-.71-.07-6.6,5.81-11.19,4.45-18.19-.42-2.16-1.43-4.1-2-6.2s-.77-4.58.41-6.34,3.72-2.39,5-4.3c1.41-2.14.81-5.15.07-7.69s-1.51-5.43-.36-7.76,3.88-3.11,5.67-4.94,2.55-4.6,3.15-7.24,1.2-5.42,2.8-7.46,4.58-3,6.44-1.27c2.09,1.94,1.56,5.69.64,8.57s-2,6.23-.59,8.83a25.84,25.84,0,0,0,2.06,2.6c3.46,4.66.2,9.56-2.61,13.25-1.54,2-3,4.49-2.62,7.12.31,2.12,1.76,3.84,2.12,6,.55,3.21-1.56,6.21-3.77,8.32-3.27,3.14-6.12,5.61-6.15,10.84,0,3.38.29,6.91-.87,10a35.7,35.7,0,0,1-1.8,3.61A27.88,27.88,0,0,0,658,377.67c.19,2.55.62,8.32-3.12,7.9-4.57-.52-6.31-15.07-5.57-18.75a25,25,0,0,0,.93-4.68C650.28,360,649.24,358,649,355.88Z" transform="translate(6.57 74.55)"/><path class="cls-13" d="M634.44,362.28a29.73,29.73,0,0,1,1.35-2.71,7.22,7.22,0,0,0,.84-2.21,5.69,5.69,0,0,0-1.64-4.52,42.94,42.94,0,0,0-3.6-3c-2.21-1.93-4-5.26-2.89-8.18.67-1.81,2.33-3.17,2.41-5.14.1-2.53-2.46-5.49-3.57-7.6a9.25,9.25,0,0,1-.16-8c.66-1.39,1.69-2.6,2-4.14a9.29,9.29,0,0,0-.15-3.15,46.86,46.86,0,0,1-.88-10.22,9,9,0,0,1,1.08-4.27c.69-1.11,1.86-2,3.09-1.63s1.46,1.55,1.91,2.72c1.31,3.4,1.66,6.46,2.24,10.11a4.9,4.9,0,0,0,.56,1.82,5,5,0,0,0,1.45,1.34c3.4,2.51,6.18,6.64,6.16,11.24,0,2.7-1,5.3-1,8a3.58,3.58,0,0,0,.42,2,3.93,3.93,0,0,0,1.37,1.06A8,8,0,0,1,649,339.5a9.79,9.79,0,0,1,0,6.24c-.57,2-1.47,3.92-2.06,5.94a4.3,4.3,0,0,0-.24,1.55c.11,1.26,1,1.86,1.62,2.79a9.18,9.18,0,0,1,1,2.76c.88,3,1.81,5.39,1.38,8.62-.17,1.29-.5,2.54-.62,3.83-.64,6.78,3.43,12.25,0,18.67-.74,1.39-2,2.74-3.41,2.42a3.45,3.45,0,0,1-1.91-1.66c-2-3.15-2.09-7.29-2.5-11.13s-1.51-8.1-4.51-9.94c-1.06-.64-2.31-1-3.11-2a5,5,0,0,1-.61-4.15A9.2,9.2,0,0,1,634.44,362.28Z" transform="translate(6.57 74.55)"/><path class="cls-13" d="M655.93,363.62a65.5,65.5,0,0,1,9-20.2c3.76-5.57,10.37-8.63,15.88-3.95,2.37,2,3.88,5,5.31,8a123.25,123.25,0,0,1,6.62,15.41c1.29,4,3.7,11.07,2.1,15.25-.95,2.49-3.89-.38-4.79-2-.53-1-1-2.1-1.92-2.47s-2.08.27-3.13.24a3,3,0,0,1-2.58-3.23,18.14,18.14,0,0,1,.66-2.61,2.32,2.32,0,0,0-.64-2.41c-.69-.42-1.51,0-2.28.16-2.33.5-4.72-2.2-4.3-4.85a17.76,17.76,0,0,1,.95-2.86c.72-2.2-.73-5.13-2.88-3.45-1.43,1.12-1,3.42-1.75,4.95a6.54,6.54,0,0,1-3.59,2.94,14.41,14.41,0,0,0-4.22,1.93c-2.17,1.8-2.77,5.11-3.38,8.08a78,78,0,0,1-3.34,11.57c-.54,1.44-1.8,3.13-3,2.33a3,3,0,0,1-.85-2.4A69.6,69.6,0,0,1,655.93,363.62Z" transform="translate(6.57 74.55)"/><path class="cls-25" d="M671,376.35H629.85v5.84h3.31l2.68,17.24c1.24,8,7.39,13.9,14.58,13.9h0c7.19,0,13.33-5.86,14.58-13.9l2.68-17.24H671Z" transform="translate(6.57 74.55)"/><g class="cls-26"><line class="cls-27" x1="641.65" y1="415.97" x2="648.93" y2="416.51"/><line class="cls-27" x1="648.71" y1="423.99" x2="656" y2="424.53"/><line class="cls-27" x1="655.78" y1="432.01" x2="663.06" y2="432.56"/><line class="cls-27" x1="662.84" y1="440.04" x2="670.13" y2="440.58"/><line class="cls-27" x1="669.91" y1="448.06" x2="677.19" y2="448.61"/><line class="cls-27" x1="676.98" y1="456.09" x2="684.26" y2="456.63"/><line class="cls-27" x1="684.04" y1="464.11" x2="691.33" y2="464.65"/><line class="cls-27" x1="691.11" y1="472.13" x2="698.39" y2="472.68"/><line class="cls-27" x1="698.17" y1="480.16" x2="705.46" y2="480.7"/><line class="cls-27" x1="627.72" y1="414.93" x2="635" y2="415.47"/><line class="cls-27" x1="634.78" y1="422.95" x2="642.07" y2="423.49"/><line class="cls-27" x1="641.85" y1="430.98" x2="649.13" y2="431.52"/><line class="cls-27" x1="648.91" y1="439" x2="656.2" y2="439.54"/><line class="cls-27" x1="655.98" y1="447.02" x2="663.27" y2="447.57"/><line class="cls-27" x1="663.05" y1="455.05" x2="670.33" y2="455.59"/><line class="cls-27" x1="670.11" y1="463.07" x2="677.4" y2="463.61"/><line class="cls-27" x1="677.18" y1="471.1" x2="684.46" y2="471.64"/><line class="cls-27" x1="684.24" y1="479.12" x2="691.53" y2="479.66"/><line class="cls-27" x1="691.31" y1="487.14" x2="698.59" y2="487.69"/><line class="cls-27" x1="620.85" y1="421.91" x2="628.14" y2="422.46"/><line class="cls-27" x1="627.92" y1="429.94" x2="635.21" y2="430.48"/><line class="cls-27" x1="634.99" y1="437.96" x2="642.27" y2="438.5"/><line class="cls-27" x1="642.05" y1="445.98" x2="649.34" y2="446.53"/><line class="cls-27" x1="649.12" y1="454.01" x2="656.4" y2="454.55"/><line class="cls-27" x1="656.18" y1="462.03" x2="663.47" y2="462.58"/><line class="cls-27" x1="663.25" y1="470.06" x2="670.53" y2="470.6"/><line class="cls-27" x1="670.32" y1="478.08" x2="677.6" y2="478.62"/><line class="cls-27" x1="677.38" y1="486.1" x2="684.67" y2="486.65"/><line class="cls-27" x1="684.45" y1="494.13" x2="691.73" y2="494.67"/><line class="cls-27" x1="613.99" y1="428.9" x2="621.28" y2="429.44"/><line class="cls-27" x1="621.06" y1="436.92" x2="628.34" y2="437.47"/><line class="cls-27" x1="628.12" y1="444.95" x2="635.41" y2="445.49"/><line class="cls-27" x1="635.19" y1="452.97" x2="642.47" y2="453.51"/><line class="cls-27" x1="642.26" y1="460.99" x2="649.54" y2="461.54"/><line class="cls-27" x1="649.32" y1="469.02" x2="656.61" y2="469.56"/><line class="cls-27" x1="656.39" y1="477.04" x2="663.67" y2="477.59"/><line class="cls-27" x1="663.45" y1="485.07" x2="670.74" y2="485.61"/><line class="cls-27" x1="670.52" y1="493.09" x2="677.8" y2="493.63"/><line class="cls-27" x1="677.59" y1="501.11" x2="684.87" y2="501.66"/><line class="cls-27" x1="607.13" y1="435.88" x2="614.41" y2="436.43"/><line class="cls-27" x1="614.2" y1="443.91" x2="621.48" y2="444.45"/><line class="cls-27" x1="621.26" y1="451.93" x2="628.55" y2="452.47"/><line class="cls-27" x1="628.33" y1="459.96" x2="635.61" y2="460.5"/><line class="cls-27" x1="635.39" y1="467.98" x2="642.68" y2="468.52"/><line class="cls-27" x1="642.46" y1="476" x2="649.74" y2="476.55"/><line class="cls-27" x1="649.53" y1="484.03" x2="656.81" y2="484.57"/><line class="cls-27" x1="656.59" y1="492.05" x2="663.88" y2="492.59"/><line class="cls-27" x1="663.66" y1="500.08" x2="670.94" y2="500.62"/><line class="cls-27" x1="670.72" y1="508.1" x2="678.01" y2="508.64"/><line class="cls-27" x1="600.27" y1="442.87" x2="607.55" y2="443.41"/><line class="cls-27" x1="607.33" y1="450.89" x2="614.62" y2="451.44"/><line class="cls-27" x1="614.4" y1="458.92" x2="621.68" y2="459.46"/><line class="cls-27" x1="621.46" y1="466.94" x2="628.75" y2="467.48"/><line class="cls-27" x1="628.53" y1="474.96" x2="635.82" y2="475.51"/><line class="cls-27" x1="635.6" y1="482.99" x2="642.88" y2="483.53"/><line class="cls-27" x1="642.66" y1="491.01" x2="649.95" y2="491.56"/><line class="cls-27" x1="649.73" y1="499.04" x2="657.01" y2="499.58"/><line class="cls-27" x1="656.79" y1="507.06" x2="664.08" y2="507.6"/><line class="cls-27" x1="663.86" y1="515.08" x2="671.15" y2="515.63"/><line class="cls-27" x1="593.4" y1="449.85" x2="600.69" y2="450.4"/><line class="cls-27" x1="600.47" y1="457.88" x2="607.76" y2="458.42"/><line class="cls-27" x1="607.54" y1="465.9" x2="614.82" y2="466.44"/><line class="cls-27" x1="614.6" y1="473.93" x2="621.89" y2="474.47"/><line class="cls-27" x1="621.67" y1="481.95" x2="628.95" y2="482.49"/><line class="cls-27" x1="628.73" y1="489.97" x2="636.02" y2="490.52"/><line class="cls-27" x1="635.8" y1="498" x2="643.09" y2="498.54"/><line class="cls-27" x1="642.87" y1="506.02" x2="650.15" y2="506.56"/><line class="cls-27" x1="649.93" y1="514.05" x2="657.22" y2="514.59"/><line class="cls-27" x1="657" y1="522.07" x2="664.28" y2="522.61"/><line class="cls-27" x1="586.54" y1="456.84" x2="593.83" y2="457.38"/><line class="cls-27" x1="593.61" y1="464.86" x2="600.89" y2="465.41"/><line class="cls-27" x1="600.67" y1="472.89" x2="607.96" y2="473.43"/><line class="cls-27" x1="607.74" y1="480.91" x2="615.02" y2="481.45"/><line class="cls-27" x1="614.81" y1="488.93" x2="622.09" y2="489.48"/><line class="cls-27" x1="621.87" y1="496.96" x2="629.16" y2="497.5"/><line class="cls-27" x1="628.94" y1="504.98" x2="636.22" y2="505.53"/><line class="cls-27" x1="636" y1="513.01" x2="643.29" y2="513.55"/><line class="cls-27" x1="643.07" y1="521.03" x2="650.35" y2="521.57"/><line class="cls-27" x1="650.14" y1="529.05" x2="657.42" y2="529.6"/><line class="cls-27" x1="579.68" y1="463.82" x2="586.96" y2="464.37"/><line class="cls-27" x1="586.75" y1="471.85" x2="594.03" y2="472.39"/><line class="cls-27" x1="593.81" y1="479.87" x2="601.1" y2="480.42"/><line class="cls-27" x1="600.88" y1="487.9" x2="608.16" y2="488.44"/><line class="cls-27" x1="607.94" y1="495.92" x2="615.23" y2="496.46"/><line class="cls-27" x1="615.01" y1="503.94" x2="622.29" y2="504.49"/><line class="cls-27" x1="622.08" y1="511.97" x2="629.36" y2="512.51"/><line class="cls-27" x1="629.14" y1="519.99" x2="636.43" y2="520.54"/><line class="cls-27" x1="636.21" y1="528.02" x2="643.49" y2="528.56"/><line class="cls-27" x1="643.27" y1="536.04" x2="650.56" y2="536.58"/><line class="cls-27" x1="572.82" y1="470.81" x2="580.1" y2="471.35"/><line class="cls-27" x1="579.88" y1="478.83" x2="587.17" y2="479.38"/><line class="cls-27" x1="586.95" y1="486.86" x2="594.23" y2="487.4"/><line class="cls-27" x1="594.02" y1="494.88" x2="601.3" y2="495.42"/><line class="cls-27" x1="601.08" y1="502.9" x2="608.37" y2="503.45"/><line class="cls-27" x1="608.15" y1="510.93" x2="615.43" y2="511.47"/><line class="cls-27" x1="615.21" y1="518.95" x2="622.5" y2="519.5"/><line class="cls-27" x1="622.28" y1="526.98" x2="629.56" y2="527.52"/><line class="cls-27" x1="629.34" y1="535" x2="636.63" y2="535.54"/></g><line class="cls-28" x1="638.57" y1="457.23" x2="675.41" y2="457.23"/><path class="cls-20" d="M147.35,37.62c9.64,5.87,20.9,7.1,31.83,7.62,12.7.6,25.5.39,38-2.35,17.36-3.81,33.59-12.38,49.61-20.87l38.9-20.6c6.94-3.68,14.25-7.71,18.42-15,6.76-11.8,2.55-28.52-6.44-38.22S296.16-65.65,284-68.53c-25.65-6.1-50.69-6.06-76.72-5.92-16.88.1-30.72-1.78-46.33,7C127.86-48.68,106,12.44,147.35,37.62Z" transform="translate(6.57 74.55)"/><path class="cls-20" d="M262.09,509.08c-5.09-8.73-8.37-18.65-11-28.66a289.78,289.78,0,0,1-1.31-143.58c1.56-6.3,4.13-13.43,9.68-15.17,5.25-1.63,10.76,2.75,13.13,8.3s2.41,12,2.52,18.15a431.86,431.86,0,0,0,18.1,116c4.56,15.14,10.1,30.23,19.16,42.5,4.55,6.16,9.94,11.55,13.92,18.21,11.32,19,1.57,38.72-17,27.67C292.6,542.6,272.56,527,262.09,509.08Z" transform="translate(6.57 74.55)"/><path class="cls-25" d="M293.39-14.41a7.81,7.81,0,0,0-7,2.43,10.31,10.31,0,0,0-2.73,7.72Z" transform="translate(6.57 74.55)"/><path class="cls-25" d="M307.4-29a7.84,7.84,0,0,0-7,2.44,10.31,10.31,0,0,0-2.73,7.72Z" transform="translate(6.57 74.55)"/><path class="cls-25" d="M293.39.18a7.84,7.84,0,0,0-7,2.44,10.31,10.31,0,0,0-2.73,7.72Z" transform="translate(6.57 74.55)"/><path class="cls-25" d="M307.4-14.41a7.81,7.81,0,0,0-7,2.43,10.31,10.31,0,0,0-2.73,7.72Z" transform="translate(6.57 74.55)"/><path class="cls-25" d="M321.41-29a7.84,7.84,0,0,0-7,2.44,10.31,10.31,0,0,0-2.73,7.72Z" transform="translate(6.57 74.55)"/><path class="cls-25" d="M293.39,14.78a7.81,7.81,0,0,0-7,2.43,10.31,10.31,0,0,0-2.73,7.72Z" transform="translate(6.57 74.55)"/><path class="cls-25" d="M307.4.18a7.84,7.84,0,0,0-7,2.44,10.31,10.31,0,0,0-2.73,7.72Z" transform="translate(6.57 74.55)"/><path class="cls-25" d="M321.41-14.41a7.81,7.81,0,0,0-7,2.43,10.31,10.31,0,0,0-2.73,7.72Z" transform="translate(6.57 74.55)"/><path class="cls-25" d="M335.42-29a7.84,7.84,0,0,0-7,2.44,10.31,10.31,0,0,0-2.73,7.72Z" transform="translate(6.57 74.55)"/><path class="cls-25" d="M293.39,29.37a7.84,7.84,0,0,0-7,2.44,10.31,10.31,0,0,0-2.73,7.72Z" transform="translate(6.57 74.55)"/><path class="cls-25" d="M307.4,14.78a7.81,7.81,0,0,0-7,2.43,10.31,10.31,0,0,0-2.73,7.72Z" transform="translate(6.57 74.55)"/><path class="cls-25" d="M321.41.18a7.84,7.84,0,0,0-7,2.44,10.31,10.31,0,0,0-2.73,7.72Z" transform="translate(6.57 74.55)"/><path class="cls-25" d="M335.42-14.41a7.81,7.81,0,0,0-7,2.43,10.31,10.31,0,0,0-2.73,7.72Z" transform="translate(6.57 74.55)"/><path class="cls-25" d="M349.43-29a7.84,7.84,0,0,0-7,2.44,10.31,10.31,0,0,0-2.73,7.72Z" transform="translate(6.57 74.55)"/><path class="cls-25" d="M293.39,44a7.81,7.81,0,0,0-7,2.43,10.31,10.31,0,0,0-2.73,7.72Z" transform="translate(6.57 74.55)"/><path class="cls-25" d="M307.4,29.37a7.84,7.84,0,0,0-7,2.44,10.31,10.31,0,0,0-2.73,7.72Z" transform="translate(6.57 74.55)"/><path class="cls-25" d="M321.41,14.78a7.81,7.81,0,0,0-7,2.43,10.31,10.31,0,0,0-2.73,7.72Z" transform="translate(6.57 74.55)"/><path class="cls-25" d="M335.42.18a7.84,7.84,0,0,0-7,2.44,10.31,10.31,0,0,0-2.73,7.72Z" transform="translate(6.57 74.55)"/><path class="cls-25" d="M349.43-14.41a7.81,7.81,0,0,0-7,2.43,10.31,10.31,0,0,0-2.73,7.72Z" transform="translate(6.57 74.55)"/><path class="cls-25" d="M363.44-29a7.83,7.83,0,0,0-7,2.44,10.31,10.31,0,0,0-2.73,7.72Z" transform="translate(6.57 74.55)"/><path class="cls-25" d="M307.4,44a7.81,7.81,0,0,0-7,2.43,10.31,10.31,0,0,0-2.73,7.72Z" transform="translate(6.57 74.55)"/><path class="cls-25" d="M321.41,29.37a7.84,7.84,0,0,0-7,2.44,10.31,10.31,0,0,0-2.73,7.72Z" transform="translate(6.57 74.55)"/><path class="cls-25" d="M335.42,14.78a7.81,7.81,0,0,0-7,2.43,10.31,10.31,0,0,0-2.73,7.72Z" transform="translate(6.57 74.55)"/><path class="cls-25" d="M349.43.18a7.84,7.84,0,0,0-7,2.44,10.31,10.31,0,0,0-2.73,7.72Z" transform="translate(6.57 74.55)"/><path class="cls-25" d="M363.44-14.41a7.8,7.8,0,0,0-7,2.43,10.31,10.31,0,0,0-2.73,7.72Z" transform="translate(6.57 74.55)"/><path class="cls-25" d="M321.41,44a7.81,7.81,0,0,0-7,2.43,10.31,10.31,0,0,0-2.73,7.72Z" transform="translate(6.57 74.55)"/><path class="cls-25" d="M335.42,29.37a7.84,7.84,0,0,0-7,2.44,10.31,10.31,0,0,0-2.73,7.72Z" transform="translate(6.57 74.55)"/><path class="cls-25" d="M349.43,14.78a7.81,7.81,0,0,0-7,2.43,10.31,10.31,0,0,0-2.73,7.72Z" transform="translate(6.57 74.55)"/><path class="cls-25" d="M363.44.18a7.83,7.83,0,0,0-7,2.44,10.31,10.31,0,0,0-2.73,7.72Z" transform="translate(6.57 74.55)"/><path class="cls-25" d="M335.42,44a7.81,7.81,0,0,0-7,2.43,10.31,10.31,0,0,0-2.73,7.72Z" transform="translate(6.57 74.55)"/><path class="cls-25" d="M349.43,29.37a7.84,7.84,0,0,0-7,2.44,10.31,10.31,0,0,0-2.73,7.72Z" transform="translate(6.57 74.55)"/><path class="cls-25" d="M363.44,14.78a7.8,7.8,0,0,0-7,2.43,10.31,10.31,0,0,0-2.73,7.72Z" transform="translate(6.57 74.55)"/><path class="cls-25" d="M349.43,44a7.81,7.81,0,0,0-7,2.43,10.31,10.31,0,0,0-2.73,7.72Z" transform="translate(6.57 74.55)"/><path class="cls-25" d="M363.44,29.37a7.83,7.83,0,0,0-7,2.44,10.31,10.31,0,0,0-2.73,7.72Z" transform="translate(6.57 74.55)"/><path class="cls-25" d="M363.44,44a7.8,7.8,0,0,0-7,2.43,10.31,10.31,0,0,0-2.73,7.72Z" transform="translate(6.57 74.55)"/><path class="cls-29" d="M297,105.93a10.78,10.78,0,0,0-4.37.94c-3.18-5.75-8.81-9.59-15.24-9.59-6.85,0-12.8,4.35-15.84,10.75a9,9,0,0,0-2.14-.26c-5.74,0-10.38,5.28-10.38,11.79s4.64,11.79,10.38,11.79a9.24,9.24,0,0,0,3.94-.89,17.27,17.27,0,0,0,14,7.67,17.08,17.08,0,0,0,13.45-6.88,10.85,10.85,0,0,0,6.16,1.94c6.63,0,12-6.1,12-13.63S303.66,105.93,297,105.93Z" transform="translate(6.57 74.55)"/><path class="cls-20" d="M303.35,115.29a10.78,10.78,0,0,0-4.37.94c-3.18-5.76-8.81-9.59-15.24-9.59-6.85,0-12.8,4.35-15.84,10.75a9,9,0,0,0-2.14-.26c-5.74,0-10.38,5.28-10.38,11.79s4.64,11.79,10.38,11.79a9.24,9.24,0,0,0,3.94-.89,16.65,16.65,0,0,0,27.49.79,10.92,10.92,0,0,0,6.16,1.94c6.63,0,12-6.1,12-13.63S310,115.29,303.35,115.29Z" transform="translate(6.57 74.55)"/><line class="cls-27" x1="28.95" y1="539.03" x2="42.68" y2="525.36"/><line class="cls-27" x1="53.94" y1="539.03" x2="67.68" y2="525.36"/><line class="cls-27" x1="78.94" y1="539.03" x2="92.67" y2="525.36"/><line class="cls-27" x1="103.94" y1="539.03" x2="117.67" y2="525.36"/><line class="cls-27" x1="128.93" y1="539.03" x2="142.67" y2="525.36"/><line class="cls-27" x1="153.93" y1="539.03" x2="167.66" y2="525.36"/><line class="cls-27" x1="27.69" y1="565.17" x2="41.42" y2="551.5"/><line class="cls-27" x1="52.69" y1="565.17" x2="66.42" y2="551.5"/><line class="cls-27" x1="77.68" y1="565.17" x2="91.41" y2="551.5"/><line class="cls-27" x1="102.68" y1="565.17" x2="116.41" y2="551.5"/><line class="cls-27" x1="127.68" y1="565.17" x2="141.41" y2="551.5"/><line class="cls-27" x1="152.67" y1="565.17" x2="166.4" y2="551.5"/><line class="cls-27" x1="26.43" y1="591.31" x2="40.16" y2="577.64"/><line class="cls-27" x1="51.43" y1="591.31" x2="65.16" y2="577.64"/><line class="cls-27" x1="76.42" y1="591.31" x2="90.16" y2="577.64"/><line class="cls-27" x1="101.42" y1="591.31" x2="115.15" y2="577.64"/><line class="cls-27" x1="126.42" y1="591.31" x2="140.15" y2="577.64"/><line class="cls-27" x1="151.41" y1="591.31" x2="165.15" y2="577.64"/><line class="cls-27" x1="0.18" y1="617.45" x2="13.91" y2="603.78"/><line class="cls-27" x1="25.17" y1="617.45" x2="38.9" y2="603.78"/><line class="cls-27" x1="50.17" y1="617.45" x2="63.9" y2="603.78"/><line class="cls-27" x1="75.17" y1="617.45" x2="88.9" y2="603.78"/><line class="cls-27" x1="100.16" y1="617.45" x2="113.89" y2="603.78"/><line class="cls-27" x1="125.16" y1="617.45" x2="138.89" y2="603.78"/><line class="cls-27" x1="150.16" y1="617.45" x2="163.89" y2="603.78"/><polygon class="cls-25" points="681.27 330.68 649.69 331 649.23 272.61 681.93 272.23 681.27 330.68"/><polygon class="cls-30" points="689.5 330.6 657.92 330.91 657.48 273.74 689.06 273.43 689.5 330.6"/><polyline class="cls-31" points="658.35 330.98 651.39 331.05 650.95 274.39 657.91 274.32"/><polygon class="cls-13" points="678.89 308.63 661.99 308.8 661.84 289.6 678.75 289.43 678.89 308.63"/><polygon class="cls-31" points="683.77 313.26 666.86 313.43 666.55 294.09 683.45 293.93 683.77 313.26"/><line class="cls-31" x1="683.77" y1="313.26" x2="678.9" y2="308.63"/><line class="cls-31" x1="666.72" y1="294.32" x2="661.84" y2="289.69"/><line class="cls-31" x1="683.62" y1="294.15" x2="678.75" y2="289.52"/><line class="cls-31" x1="666.86" y1="313.43" x2="661.99" y2="308.79"/><path class="cls-30" d="M384.67,219.35l-10-20.44V175.19h-12v24.34l-10,19.8a2.1,2.1,0,0,0,1.6,3.13h28.83A2.1,2.1,0,0,0,384.67,219.35Z" transform="translate(6.57 74.55)"/><rect class="cls-30" x="367.8" y="247.64" width="14.8" height="4.2" rx="1.59"/><path class="cls-13" d="M374.65,206.17H362.57l-5.33,10.91a1.5,1.5,0,0,0,1.13,2.23h20.51A1.49,1.49,0,0,0,380,217.1Z" transform="translate(6.57 74.55)"/><line class="cls-23" x1="372.19" y1="263.4" x2="372.19" y2="293.36"/><line class="cls-23" x1="366.87" y1="290.45" x2="371.96" y2="290.45"/><line class="cls-23" x1="367.1" y1="286.77" x2="372.19" y2="286.77"/><line class="cls-23" x1="367.33" y1="283.1" x2="372.42" y2="283.1"/><line class="cls-23" x1="367.57" y1="279.42" x2="372.65" y2="279.42"/><ellipse class="cls-32" cx="376.86" cy="263.82" rx="2.64" ry="2.99"/><ellipse class="cls-32" cx="372.42" cy="241.6" rx="3.24" ry="3.68"/><ellipse class="cls-32" cx="379.36" cy="235.3" rx="2.31" ry="2.63"/><path class="cls-32" d="M371,181.06a1.4,1.4,0,1,1-2.78,0,1.4,1.4,0,1,1,2.78,0Z" transform="translate(6.57 74.55)"/><polyline class="cls-33" points="666.94 239.95 609.69 240.49 609.69 182.38"/><polygon class="cls-34" points="665.81 236.22 672.32 239.9 665.88 243.7 665.81 236.22"/><polygon class="cls-34" points="613.43 183.47 609.69 177 605.95 183.47 613.43 183.47"/><path class="cls-30" d="M652.35,125.82a7,7,0,0,0-2.84.61,11.44,11.44,0,0,0-9.91-6.24,11.57,11.57,0,0,0-10.29,7,5.9,5.9,0,0,0-1.4-.17c-3.72,0-6.74,3.43-6.74,7.67s3,7.66,6.74,7.66a6,6,0,0,0,2.57-.58,10.82,10.82,0,0,0,17.87.51,7,7,0,0,0,4,1.27c4.31,0,7.8-4,7.8-8.86S656.66,125.82,652.35,125.82Z" transform="translate(6.57 74.55)"/><path class="cls-13" d="M631.88,137.34a4.93,4.93,0,0,0-2.58.73,8,8,0,0,0-6.68-3.88,8.2,8.2,0,0,0-7.35,5.13,4,4,0,0,0-2.21-.69,4.67,4.67,0,0,0-4.35,4.93c0,2.73,1.95,4.94,4.35,4.94a3.92,3.92,0,0,0,2.21-.7,8.2,8.2,0,0,0,7.35,5.14,8,8,0,0,0,6.68-3.88,4.93,4.93,0,0,0,2.58.73c3,0,5.49-2.79,5.49-6.23S634.91,137.34,631.88,137.34Z" transform="translate(6.57 74.55)"/><polygon class="cls-23" points="348.71 377.38 349.1 336.78 383.4 357.01 348.71 377.38"/><path d="M341.06,257.08c3-1.61,6.55-.18,8,3.21s.16,7.44-2.82,9-6.55.18-8-3.2S338.08,258.7,341.06,257.08Z" transform="translate(6.57 74.55)"/><path class="cls-25" d="M339.57,296.7c3-1.62,6.55-.18,8,3.21a7.22,7.22,0,0,1-2.82,9c-3,1.61-6.55.18-8-3.21S336.59,298.31,339.57,296.7Z" transform="translate(6.57 74.55)"/><path class="cls-13" d="M373.82,277c3.14-1.7,6.9-.19,8.39,3.38s.17,7.82-3,9.52-6.89.19-8.39-3.37S370.68,278.66,373.82,277Z" transform="translate(6.57 74.55)"/></g></g></g></svg>