<?xml version="1.0" encoding="utf-8"?>
<!-- Generator: Adobe Illustrator 24.2.1, SVG Export Plug-In . SVG Version: 6.00 Build 0)  -->
<svg version="1.1" id="Layer_1" xmlns="http://www.w3.org/2000/svg" xmlns:xlink="http://www.w3.org/1999/xlink" x="0px" y="0px"
	 viewBox="0 0 232.3 237.3" style="enable-background:new 0 0 232.3 237.3;" xml:space="preserve">
<style type="text/css">
	.st0{fill:none;}
	.st1{fill:#DEFFFB;}
	.st2{fill:#E3B839;}
	.st3{display:none;fill:#F8F9FF;stroke:#000000;stroke-width:0.5;stroke-miterlimit:10;}
	.st4{display:none;fill:#48ADBD;}
	.st5{display:none;fill:url(#SVGID_1_);}
	.st6{display:none;fill:url(#SVGID_2_);}
	.st7{display:none;fill:#60C4D1;}
	.st8{display:none;opacity:0.48;fill:url(#SVGID_3_);enable-background:new    ;}
	.st9{opacity:0.48;fill:url(#SVGID_4_);enable-background:new    ;}
	.st10{display:none;fill:none;stroke:#000000;stroke-width:0.5;stroke-miterlimit:10;}
	.st11{fill:#242424;}
	.st12{fill:#F8F9FF;}
	.st13{clip-path:url(#SVGID_6_);}
	.st14{fill:#D0DEED;}
	.st15{fill:#FFD437;}
	.st16{fill:#FFF0E0;}
	.st17{fill:#F7DCC8;}
	.st18{fill:none;stroke:#000000;stroke-width:0.5;stroke-linecap:round;stroke-miterlimit:10;}
	.st19{fill:none;stroke:#000000;stroke-width:0.25;stroke-miterlimit:10;}
	.st20{fill:#B1BDC9;}
	.st21{fill:#FFFFFF;}
</style>
<pattern  y="237.3" width="67.6" height="67.6" patternUnits="userSpaceOnUse" id="New_Pattern" viewBox="0 -67.6 67.6 67.6" style="overflow:visible;">
	<g>
		<rect y="-67.6" class="st0" width="67.6" height="67.6"/>
		<rect y="-67.6" class="st0" width="67.6" height="67.6"/>
		<path d="M3.4-4.5c0-0.2-0.2-0.4-0.4-0.4c-0.2,0-0.4,0.2-0.3,0.4c0,0.2,0.1,0.4,0.3,0.4c0,0,0,0,0,0C3.3-4.1,3.4-4.3,3.4-4.5
			C3.4-4.5,3.4-4.5,3.4-4.5z"/>
		<path d="M10.1-4.5c0-0.2-0.2-0.4-0.3-0.4S9.4-4.7,9.4-4.5c0,0,0,0,0,0c0,0.2,0.2,0.4,0.3,0.4S10.1-4.3,10.1-4.5
			C10.1-4.5,10.1-4.5,10.1-4.5z"/>
		<path d="M16.7-4.5c0-0.2-0.1-0.4-0.3-0.4c-0.2,0-0.4,0.1-0.4,0.3c0,0,0,0.1,0,0.1c0,0.2,0.1,0.4,0.3,0.4c0.2,0,0.4-0.1,0.4-0.3
			C16.7-4.4,16.7-4.4,16.7-4.5z"/>
		<path d="M23.4-4.5c0-0.2-0.1-0.4-0.3-0.4c0,0,0,0,0,0c-0.2,0-0.4,0.2-0.4,0.4c0,0.2,0.1,0.4,0.3,0.4c0,0,0,0,0,0
			C23.2-4.1,23.4-4.2,23.4-4.5C23.4-4.5,23.4-4.5,23.4-4.5z"/>
		<path d="M30.1-4.5c0-0.2-0.1-0.4-0.4-0.4c-0.2,0-0.4,0.2-0.4,0.4c0,0,0,0,0,0c0,0.2,0.1,0.4,0.3,0.4c0,0,0,0,0,0
			C29.9-4.1,30.1-4.3,30.1-4.5C30.1-4.5,30.1-4.5,30.1-4.5z"/>
		<path d="M36.7-4.5c0-0.2-0.1-0.4-0.3-0.4c-0.2,0-0.4,0.1-0.4,0.3c0,0,0,0.1,0,0.1c0,0.2,0.1,0.4,0.3,0.4c0.2,0,0.4-0.1,0.4-0.3
			C36.7-4.4,36.7-4.4,36.7-4.5z"/>
		<path d="M43.4-4.5c0-0.2-0.2-0.4-0.3-0.4c-0.2,0-0.4,0.2-0.4,0.4s0.2,0.4,0.4,0.4C43.2-4.1,43.4-4.3,43.4-4.5z"/>
		<path d="M50.1-4.5c0-0.2-0.1-0.4-0.3-0.4c-0.2,0-0.4,0.1-0.4,0.3c0,0,0,0.1,0,0.1c0,0.2,0.1,0.4,0.3,0.4c0.2,0,0.4-0.1,0.4-0.3
			C50.1-4.4,50.1-4.4,50.1-4.5z"/>
		<path d="M56.7-4.5c0-0.2-0.1-0.4-0.3-0.4c0,0,0,0,0,0c-0.2,0-0.4,0.2-0.4,0.4c0,0,0,0,0,0c0,0.2,0.1,0.4,0.3,0.4c0,0,0,0,0,0
			C56.5-4.1,56.7-4.2,56.7-4.5C56.7-4.4,56.7-4.5,56.7-4.5z"/>
		<path d="M63.4-4.5c0-0.2-0.1-0.4-0.3-0.4c-0.2,0-0.4,0.2-0.4,0.4c0,0,0,0,0,0c0,0.2,0.1,0.4,0.3,0.4c0,0,0,0,0,0
			C63.3-4.1,63.4-4.3,63.4-4.5C63.4-4.5,63.4-4.5,63.4-4.5z"/>
		<path d="M3.4-11.1c0-0.2-0.2-0.4-0.4-0.4c-0.2,0-0.4,0.2-0.3,0.5c0,0.2,0.2,0.3,0.3,0.3C3.3-10.8,3.4-10.9,3.4-11.1
			C3.4-11.1,3.4-11.1,3.4-11.1z"/>
		<path d="M10.1-11.1c0-0.2-0.2-0.3-0.4-0.3S9.3-11.2,9.4-11c0,0.2,0.2,0.3,0.3,0.3C9.9-10.8,10.1-10.9,10.1-11.1z"/>
		<path d="M16.7-11.1c0-0.2-0.1-0.4-0.3-0.4c-0.2,0-0.4,0.1-0.4,0.3c0,0,0,0.1,0,0.1c0,0.2,0.1,0.4,0.3,0.4c0.2,0,0.4-0.1,0.4-0.3
			C16.7-11.1,16.7-11.1,16.7-11.1z"/>
		<path d="M23.4-11.1c0-0.2-0.1-0.4-0.3-0.4c0,0,0,0,0,0c-0.2,0-0.4,0.1-0.4,0.3c0,0.2,0.1,0.4,0.3,0.4
			C23.2-10.7,23.4-10.9,23.4-11.1C23.4-11.1,23.4-11.1,23.4-11.1z"/>
		<path d="M30.1-11.1c0-0.2-0.1-0.4-0.4-0.4c-0.2,0-0.4,0.2-0.3,0.5c0,0.2,0.2,0.3,0.3,0.3C29.9-10.8,30.1-10.9,30.1-11.1z"/>
		<path d="M36.7-11.1c0-0.2-0.2-0.3-0.4-0.3c-0.2,0-0.3,0.2-0.3,0.4c0,0.2,0.2,0.3,0.4,0.3C36.6-10.8,36.8-10.9,36.7-11.1
			C36.7-11.1,36.7-11.1,36.7-11.1z"/>
		<path d="M43.4-11.1c0-0.2-0.2-0.3-0.4-0.3c-0.2,0-0.3,0.2-0.3,0.4c0,0.2,0.2,0.3,0.3,0.3C43.3-10.8,43.4-10.9,43.4-11.1z"/>
		<path d="M50.1-11.1c0-0.2-0.1-0.4-0.3-0.4c-0.2,0-0.4,0.1-0.4,0.3c0,0,0,0.1,0,0.1c0,0.2,0.1,0.4,0.3,0.4c0.2,0,0.4-0.1,0.4-0.3
			C50.1-11.1,50.1-11.1,50.1-11.1z"/>
		<path d="M56.7-11.1c0-0.2-0.1-0.4-0.3-0.4c0,0,0,0,0,0c-0.2,0-0.4,0.1-0.4,0.3c0,0.2,0.1,0.4,0.3,0.4
			C56.5-10.7,56.7-10.9,56.7-11.1C56.7-11.1,56.7-11.1,56.7-11.1z"/>
		<path d="M63.4-11.1c0-0.2-0.1-0.4-0.3-0.4c-0.2,0-0.4,0.2-0.3,0.5c0,0.2,0.2,0.3,0.3,0.3C63.3-10.8,63.4-10.9,63.4-11.1z"/>
		<path d="M3.4-17.8c0-0.2-0.1-0.4-0.3-0.4c0,0,0,0,0,0c-0.2,0-0.4,0.2-0.4,0.4c0,0,0,0,0,0c0,0.2,0.1,0.4,0.3,0.4
			C3.3-17.4,3.4-17.6,3.4-17.8z"/>
		<path d="M10.1-17.8c0-0.2-0.2-0.4-0.3-0.4S9.4-18,9.4-17.8c0,0,0,0,0,0c0,0.2,0.2,0.4,0.3,0.4S10.1-17.6,10.1-17.8
			C10.1-17.8,10.1-17.8,10.1-17.8z"/>
		<path d="M16.7-17.8c0-0.2-0.1-0.4-0.3-0.4c-0.2,0-0.4,0.1-0.4,0.3c0,0,0,0.1,0,0.1c0,0.2,0.1,0.4,0.3,0.4c0.2,0,0.4-0.1,0.4-0.3
			C16.7-17.7,16.7-17.8,16.7-17.8z"/>
		<path d="M23.4-17.8c0-0.2-0.1-0.4-0.3-0.4c0,0,0,0,0,0c-0.2,0-0.4,0.2-0.4,0.4c0,0,0,0,0,0c0,0.2,0.1,0.4,0.4,0.4
			C23.3-17.4,23.4-17.6,23.4-17.8C23.4-17.8,23.4-17.8,23.4-17.8z"/>
		<path d="M30.1-17.8c0-0.2-0.1-0.4-0.3-0.4c0,0,0,0,0,0c-0.2,0-0.4,0.2-0.4,0.4c0,0,0,0,0,0c0,0.2,0.1,0.4,0.3,0.4c0,0,0,0,0,0
			C29.9-17.4,30.1-17.6,30.1-17.8z"/>
		<path d="M36.7-17.8c0-0.2-0.1-0.4-0.3-0.4c-0.2,0-0.4,0.1-0.4,0.3c0,0,0,0.1,0,0.1c0,0.2,0.1,0.4,0.3,0.4c0.2,0,0.4-0.1,0.4-0.3
			C36.7-17.7,36.7-17.8,36.7-17.8z"/>
		<path d="M43.4-17.8c0-0.2-0.2-0.4-0.3-0.4c-0.2,0-0.4,0.2-0.4,0.4s0.2,0.4,0.4,0.4C43.2-17.4,43.4-17.6,43.4-17.8z"/>
		<path d="M50.1-17.8c0-0.2-0.1-0.4-0.3-0.4c-0.2,0-0.4,0.1-0.4,0.3c0,0,0,0.1,0,0.1c0,0.2,0.1,0.4,0.3,0.4c0.2,0,0.4-0.1,0.4-0.3
			C50.1-17.7,50.1-17.8,50.1-17.8z"/>
		<path d="M56.7-17.8c0-0.2-0.1-0.4-0.3-0.4c0,0,0,0,0,0c-0.2,0-0.4,0.2-0.4,0.4c0,0,0,0,0,0c0,0.2,0.1,0.4,0.3,0.4
			C56.6-17.4,56.7-17.6,56.7-17.8C56.7-17.8,56.7-17.8,56.7-17.8z"/>
		<path d="M63.4-17.8c0-0.2-0.1-0.4-0.3-0.4c0,0,0,0,0,0c-0.2,0-0.4,0.2-0.4,0.4c0,0,0,0,0,0c0,0.2,0.1,0.4,0.3,0.4c0,0,0,0,0,0
			C63.3-17.4,63.4-17.6,63.4-17.8z"/>
		<path d="M3.4-24.5c0-0.2-0.2-0.4-0.4-0.4c-0.2,0-0.4,0.2-0.3,0.4c0,0.2,0.1,0.4,0.3,0.4c0,0,0,0,0,0C3.3-24.1,3.4-24.3,3.4-24.5
			C3.4-24.5,3.4-24.5,3.4-24.5z"/>
		<path d="M10.1-24.5c0-0.2-0.2-0.4-0.3-0.4s-0.4,0.2-0.4,0.3c0,0,0,0,0,0c0,0.2,0.2,0.4,0.3,0.4S10.1-24.3,10.1-24.5
			C10.1-24.5,10.1-24.5,10.1-24.5z"/>
		<path d="M16.7-24.5c0-0.2-0.1-0.4-0.3-0.4c-0.2,0-0.4,0.1-0.4,0.3c0,0,0,0.1,0,0.1c0,0.2,0.1,0.4,0.3,0.4c0.2,0,0.4-0.1,0.4-0.3
			C16.7-24.4,16.7-24.4,16.7-24.5z"/>
		<path d="M23.4-24.5c0-0.2-0.1-0.4-0.3-0.4c0,0,0,0,0,0c-0.2,0-0.4,0.2-0.4,0.4c0,0.2,0.1,0.4,0.3,0.4c0,0,0,0,0,0
			C23.2-24.1,23.4-24.2,23.4-24.5C23.4-24.5,23.4-24.5,23.4-24.5z"/>
		<path d="M30.1-24.5c0-0.2-0.1-0.4-0.4-0.4c-0.2,0-0.4,0.2-0.4,0.4c0,0,0,0,0,0c0,0.2,0.1,0.4,0.3,0.4c0,0,0,0,0,0
			C29.9-24.1,30.1-24.3,30.1-24.5C30.1-24.5,30.1-24.5,30.1-24.5z"/>
		<path d="M36.7-24.5c0-0.2-0.1-0.4-0.3-0.4c-0.2,0-0.4,0.1-0.4,0.3c0,0,0,0.1,0,0.1c0,0.2,0.1,0.4,0.3,0.4c0.2,0,0.4-0.1,0.4-0.3
			C36.7-24.4,36.7-24.4,36.7-24.5z"/>
		<path d="M43.4-24.5c0-0.2-0.2-0.4-0.3-0.4c-0.2,0-0.4,0.2-0.4,0.4s0.2,0.4,0.4,0.4C43.2-24.1,43.4-24.3,43.4-24.5L43.4-24.5z"/>
		<path d="M50.1-24.5c0-0.2-0.1-0.4-0.3-0.4c-0.2,0-0.4,0.1-0.4,0.3c0,0,0,0.1,0,0.1c0,0.2,0.1,0.4,0.3,0.4c0.2,0,0.4-0.1,0.4-0.3
			C50.1-24.4,50.1-24.4,50.1-24.5z"/>
		<path d="M56.7-24.5c0-0.2-0.1-0.4-0.3-0.4c0,0,0,0,0,0c-0.2,0-0.4,0.2-0.3,0.4c0,0.2,0.1,0.4,0.3,0.4c0,0,0,0,0,0
			C56.6-24.1,56.7-24.2,56.7-24.5C56.7-24.5,56.7-24.5,56.7-24.5z"/>
		<path d="M63.4-24.5c0-0.2-0.1-0.4-0.3-0.4c-0.2,0-0.4,0.2-0.4,0.4c0,0,0,0,0,0c0,0.2,0.1,0.4,0.3,0.4c0,0,0,0,0,0
			C63.3-24.1,63.4-24.3,63.4-24.5C63.4-24.5,63.4-24.5,63.4-24.5z"/>
		<path d="M3.4-31.1c0-0.2-0.2-0.4-0.4-0.4c-0.2,0-0.4,0.2-0.3,0.4c0,0.2,0.1,0.4,0.3,0.4c0,0,0,0,0,0C3.3-30.8,3.4-30.9,3.4-31.1
			C3.4-31.1,3.4-31.1,3.4-31.1z"/>
		<path d="M10.1-31.1c0-0.2-0.2-0.4-0.3-0.4s-0.4,0.2-0.4,0.3c0,0,0,0,0,0c0,0.2,0.2,0.4,0.3,0.4S10.1-30.9,10.1-31.1
			C10.1-31.1,10.1-31.1,10.1-31.1z"/>
		<path d="M16.7-31.1c0-0.2-0.1-0.4-0.3-0.4c-0.2,0-0.4,0.1-0.4,0.3c0,0,0,0.1,0,0.1c0,0.2,0.1,0.4,0.3,0.4c0.2,0,0.4-0.1,0.4-0.3
			C16.7-31.1,16.7-31.1,16.7-31.1z"/>
		<path d="M23.4-31.1c0-0.2-0.1-0.4-0.3-0.4c0,0,0,0,0,0c-0.2,0-0.4,0.2-0.4,0.4c0,0.2,0.1,0.4,0.3,0.4c0,0,0,0,0,0
			C23.2-30.8,23.4-30.9,23.4-31.1C23.4-31.1,23.4-31.1,23.4-31.1z"/>
		<path d="M30.1-31.1c0-0.2-0.1-0.4-0.4-0.4c-0.2,0-0.4,0.2-0.4,0.4c0,0,0,0,0,0c0,0.2,0.1,0.4,0.3,0.4c0,0,0,0,0,0
			C29.9-30.8,30.1-30.9,30.1-31.1C30.1-31.1,30.1-31.1,30.1-31.1z"/>
		<path d="M36.7-31.1c0-0.2-0.1-0.4-0.3-0.4c-0.2,0-0.4,0.1-0.4,0.3c0,0,0,0.1,0,0.1c0,0.2,0.1,0.4,0.3,0.4c0.2,0,0.4-0.1,0.4-0.3
			C36.7-31.1,36.7-31.1,36.7-31.1z"/>
		<path d="M43.4-31.1c0-0.2-0.2-0.4-0.3-0.4c-0.2,0-0.4,0.2-0.4,0.4s0.2,0.4,0.4,0.4C43.2-30.8,43.4-30.9,43.4-31.1z"/>
		<path d="M50.1-31.1c0-0.2-0.1-0.4-0.3-0.4c-0.2,0-0.4,0.1-0.4,0.3c0,0,0,0.1,0,0.1c0,0.2,0.1,0.4,0.3,0.4c0.2,0,0.4-0.1,0.4-0.3
			C50.1-31.1,50.1-31.1,50.1-31.1z"/>
		<path d="M56.7-31.1c0-0.2-0.1-0.4-0.3-0.4c0,0,0,0,0,0c-0.2,0-0.4,0.2-0.3,0.4c0,0.2,0.1,0.4,0.3,0.4c0,0,0,0,0,0
			C56.6-30.8,56.7-30.9,56.7-31.1C56.7-31.1,56.7-31.1,56.7-31.1z"/>
		<path d="M63.4-31.1c0-0.2-0.1-0.4-0.3-0.4c-0.2,0-0.4,0.2-0.4,0.4c0,0,0,0,0,0c0,0.2,0.1,0.4,0.3,0.4c0,0,0,0,0,0
			C63.3-30.8,63.4-30.9,63.4-31.1C63.4-31.1,63.4-31.1,63.4-31.1z"/>
		<path d="M3.4-37.8c0-0.2-0.1-0.4-0.3-0.4c0,0,0,0,0,0c-0.2,0-0.4,0.2-0.4,0.4c0,0,0,0,0,0c0,0.2,0.1,0.4,0.3,0.4
			C3.3-37.4,3.4-37.6,3.4-37.8z"/>
		<path d="M10.1-37.8c0-0.2-0.2-0.4-0.3-0.4c-0.2,0-0.4,0.2-0.4,0.3c0,0,0,0,0,0c0,0.2,0.2,0.4,0.3,0.4
			C9.9-37.4,10.1-37.6,10.1-37.8C10.1-37.8,10.1-37.8,10.1-37.8z"/>
		<path d="M16.7-37.8c0-0.2-0.1-0.4-0.3-0.4c-0.2,0-0.4,0.1-0.4,0.3c0,0,0,0.1,0,0.1c0,0.2,0.1,0.4,0.3,0.4c0.2,0,0.4-0.1,0.4-0.3
			C16.7-37.7,16.7-37.8,16.7-37.8z"/>
		<path d="M23.4-37.8c0-0.2-0.1-0.4-0.3-0.4c0,0,0,0,0,0c-0.2,0-0.4,0.2-0.4,0.4c0,0,0,0,0,0c0,0.2,0.1,0.4,0.4,0.4
			C23.3-37.4,23.4-37.6,23.4-37.8C23.4-37.8,23.4-37.8,23.4-37.8z"/>
		<path d="M30.1-37.8c0-0.2-0.1-0.4-0.3-0.4c0,0,0,0,0,0c-0.2,0-0.4,0.2-0.4,0.4c0,0,0,0,0,0c0,0.2,0.1,0.4,0.3,0.4c0,0,0,0,0,0
			C29.9-37.4,30.1-37.6,30.1-37.8z"/>
		<path d="M36.7-37.8c0-0.2-0.1-0.4-0.3-0.4c-0.2,0-0.4,0.1-0.4,0.3c0,0,0,0.1,0,0.1c0,0.2,0.1,0.4,0.3,0.4c0.2,0,0.4-0.1,0.4-0.3
			C36.7-37.7,36.7-37.8,36.7-37.8z"/>
		<path d="M43.4-37.8c0-0.2-0.2-0.4-0.3-0.4c-0.2,0-0.4,0.2-0.4,0.4s0.2,0.4,0.4,0.4C43.2-37.4,43.4-37.6,43.4-37.8z"/>
		<path d="M50.1-37.8c0-0.2-0.1-0.4-0.3-0.4c-0.2,0-0.4,0.1-0.4,0.3c0,0,0,0.1,0,0.1c0,0.2,0.1,0.4,0.3,0.4c0.2,0,0.4-0.1,0.4-0.3
			C50.1-37.7,50.1-37.8,50.1-37.8z"/>
		<path d="M56.7-37.8c0-0.2-0.1-0.4-0.3-0.4c0,0,0,0,0,0c-0.2,0-0.4,0.2-0.4,0.4c0,0,0,0,0,0c0,0.2,0.1,0.4,0.3,0.4
			C56.6-37.4,56.7-37.6,56.7-37.8C56.7-37.8,56.7-37.8,56.7-37.8z"/>
		<path d="M63.4-37.8c0-0.2-0.1-0.4-0.3-0.4c0,0,0,0,0,0c-0.2,0-0.4,0.2-0.4,0.4c0,0,0,0,0,0c0,0.2,0.1,0.4,0.3,0.4c0,0,0,0,0,0
			C63.3-37.4,63.4-37.6,63.4-37.8z"/>
		<path d="M3.4-44.5c0-0.2-0.1-0.4-0.3-0.4c0,0,0,0,0,0c-0.2,0-0.4,0.2-0.4,0.4c0,0.2,0.2,0.4,0.4,0.4C3.3-44.1,3.4-44.3,3.4-44.5
			C3.4-44.5,3.4-44.5,3.4-44.5z"/>
		<path d="M10.1-44.5c0-0.2-0.2-0.3-0.4-0.3c-0.2,0-0.3,0.2-0.3,0.4c0,0.2,0.2,0.3,0.3,0.3C9.9-44.1,10.1-44.3,10.1-44.5
			C10.1-44.5,10.1-44.5,10.1-44.5z"/>
		<path d="M16.7-44.5c0-0.2-0.2-0.3-0.4-0.3c-0.2,0-0.3,0.2-0.3,0.4c0,0.2,0.2,0.3,0.4,0.3C16.6-44.1,16.8-44.3,16.7-44.5
			C16.7-44.5,16.7-44.5,16.7-44.5z"/>
		<path d="M23.4-44.5c0-0.2-0.1-0.4-0.3-0.4c0,0,0,0,0,0c-0.2,0-0.4,0.2-0.4,0.4c0,0.2,0.2,0.4,0.4,0.4
			C23.2-44.1,23.4-44.2,23.4-44.5C23.4-44.5,23.4-44.5,23.4-44.5z"/>
		<path d="M30.1-44.5c0-0.2-0.1-0.4-0.3-0.4c0,0,0,0,0,0c-0.2,0-0.4,0.2-0.4,0.4c0,0.2,0.2,0.4,0.4,0.4
			C29.9-44.1,30.1-44.3,30.1-44.5C30.1-44.5,30.1-44.5,30.1-44.5z"/>
		<path d="M36.7-44.5c0-0.2-0.2-0.3-0.4-0.3c-0.2,0-0.3,0.2-0.3,0.4c0,0.2,0.2,0.3,0.4,0.3C36.6-44.1,36.7-44.3,36.7-44.5
			C36.7-44.5,36.7-44.5,36.7-44.5z"/>
		<path d="M43.4-44.5c0-0.2-0.2-0.3-0.4-0.3c-0.2,0-0.3,0.2-0.3,0.4c0,0.2,0.2,0.3,0.3,0.3C43.3-44.1,43.4-44.3,43.4-44.5
			C43.4-44.5,43.4-44.5,43.4-44.5z"/>
		<path d="M50.1-44.5c0-0.2-0.2-0.3-0.4-0.3c-0.2,0-0.3,0.2-0.3,0.4c0,0.2,0.2,0.3,0.4,0.3C49.9-44.1,50.1-44.3,50.1-44.5
			C50.1-44.5,50.1-44.5,50.1-44.5z"/>
		<path d="M56.7-44.5c0-0.2-0.1-0.4-0.3-0.4c0,0,0,0,0,0c-0.2,0-0.4,0.2-0.4,0.4c0,0.2,0.2,0.4,0.4,0.4
			C56.6-44.1,56.7-44.2,56.7-44.5C56.7-44.5,56.7-44.5,56.7-44.5z"/>
		<path d="M63.4-44.5c0-0.2-0.1-0.4-0.3-0.4c0,0,0,0,0,0c-0.2,0-0.4,0.2-0.4,0.4c0,0.2,0.2,0.4,0.4,0.4
			C63.3-44.1,63.4-44.3,63.4-44.5C63.4-44.5,63.4-44.5,63.4-44.5z"/>
		<path d="M3.4-51.1c0-0.2-0.2-0.4-0.4-0.4c-0.2,0-0.4,0.2-0.3,0.4c0,0.2,0.1,0.4,0.3,0.4c0,0,0,0,0,0C3.3-50.8,3.4-50.9,3.4-51.1
			C3.4-51.1,3.4-51.1,3.4-51.1z"/>
		<path d="M10.1-51.1c0-0.2-0.2-0.4-0.3-0.4c-0.2,0-0.4,0.2-0.4,0.3c0,0,0,0,0,0c0,0.2,0.2,0.4,0.3,0.4
			C9.9-50.8,10.1-50.9,10.1-51.1C10.1-51.1,10.1-51.1,10.1-51.1z"/>
		<path d="M16.7-51.1c0-0.2-0.1-0.4-0.3-0.4c-0.2,0-0.4,0.1-0.4,0.3c0,0,0,0.1,0,0.1c0,0.2,0.1,0.4,0.3,0.4c0.2,0,0.4-0.1,0.4-0.3
			C16.7-51.1,16.7-51.1,16.7-51.1z"/>
		<path d="M23.4-51.1c0-0.2-0.1-0.4-0.3-0.4c0,0,0,0,0,0c-0.2,0-0.4,0.2-0.4,0.4c0,0.2,0.1,0.4,0.3,0.4c0,0,0,0,0,0
			C23.2-50.8,23.4-50.9,23.4-51.1C23.4-51.1,23.4-51.1,23.4-51.1z"/>
		<path d="M30.1-51.1c0-0.2-0.1-0.4-0.4-0.4c-0.2,0-0.4,0.2-0.4,0.4c0,0,0,0,0,0c0,0.2,0.1,0.4,0.3,0.4c0,0,0,0,0,0
			C29.9-50.8,30.1-50.9,30.1-51.1C30.1-51.1,30.1-51.1,30.1-51.1z"/>
		<path d="M36.7-51.1c0-0.2-0.1-0.4-0.3-0.4c-0.2,0-0.4,0.1-0.4,0.3c0,0,0,0.1,0,0.1c0,0.2,0.1,0.4,0.3,0.4c0.2,0,0.4-0.1,0.4-0.3
			C36.7-51.1,36.7-51.1,36.7-51.1z"/>
		<path d="M43.4-51.1c0-0.2-0.2-0.3-0.3-0.4c-0.2,0-0.4,0.2-0.4,0.4l0,0c0,0.2,0.2,0.3,0.4,0.3C43.2-50.8,43.4-50.9,43.4-51.1z"/>
		<path d="M50.1-51.1c0-0.2-0.1-0.4-0.3-0.4c-0.2,0-0.4,0.1-0.4,0.3c0,0,0,0.1,0,0.1c0,0.2,0.1,0.4,0.3,0.4c0.2,0,0.4-0.1,0.4-0.3
			C50.1-51.1,50.1-51.1,50.1-51.1z"/>
		<path d="M56.7-51.1c0-0.2-0.1-0.4-0.3-0.4c0,0,0,0,0,0c-0.2,0-0.4,0.2-0.3,0.4c0,0.2,0.1,0.4,0.3,0.4c0,0,0,0,0,0
			C56.6-50.8,56.7-50.9,56.7-51.1C56.7-51.1,56.7-51.1,56.7-51.1z"/>
		<path d="M63.4-51.1c0-0.2-0.1-0.4-0.3-0.4c-0.2,0-0.4,0.2-0.4,0.4c0,0,0,0,0,0c0,0.2,0.1,0.4,0.3,0.4c0,0,0,0,0,0
			C63.3-50.8,63.4-50.9,63.4-51.1C63.4-51.1,63.4-51.1,63.4-51.1z"/>
		<path d="M3.4-57.8c0-0.2-0.1-0.4-0.3-0.4c0,0,0,0,0,0c-0.2,0-0.4,0.2-0.4,0.4c0,0,0,0,0,0c0,0.2,0.1,0.4,0.3,0.4
			C3.3-57.4,3.4-57.6,3.4-57.8z"/>
		<path d="M10.1-57.8c0-0.2-0.2-0.4-0.3-0.4c-0.2,0-0.4,0.2-0.4,0.3c0,0,0,0,0,0c0,0.2,0.2,0.4,0.3,0.4
			C9.9-57.4,10.1-57.6,10.1-57.8C10.1-57.8,10.1-57.8,10.1-57.8z"/>
		<path d="M16.7-57.8c0-0.2-0.1-0.4-0.3-0.4c-0.2,0-0.4,0.1-0.4,0.3c0,0,0,0.1,0,0.1c0,0.2,0.1,0.4,0.3,0.4c0.2,0,0.4-0.1,0.4-0.3
			C16.7-57.7,16.7-57.8,16.7-57.8z"/>
		<path d="M23.4-57.8c0-0.2-0.1-0.4-0.3-0.4c0,0,0,0,0,0c-0.2,0-0.4,0.2-0.4,0.4c0,0,0,0,0,0c0,0.2,0.1,0.4,0.4,0.4
			C23.3-57.4,23.4-57.6,23.4-57.8C23.4-57.8,23.4-57.8,23.4-57.8z"/>
		<path d="M30.1-57.8c0-0.2-0.1-0.4-0.3-0.4c0,0,0,0,0,0c-0.2,0-0.4,0.2-0.4,0.4c0,0,0,0,0,0c0,0.2,0.1,0.4,0.3,0.4c0,0,0,0,0,0
			C29.9-57.4,30.1-57.6,30.1-57.8z"/>
		<path d="M36.7-57.8c0-0.2-0.1-0.4-0.3-0.4c-0.2,0-0.4,0.1-0.4,0.3c0,0,0,0.1,0,0.1c0,0.2,0.1,0.4,0.3,0.4c0.2,0,0.4-0.1,0.4-0.3
			C36.7-57.7,36.7-57.8,36.7-57.8z"/>
		<path d="M43.4-57.8c0-0.2-0.2-0.4-0.4-0.3c-0.2,0-0.3,0.2-0.3,0.3s0.2,0.4,0.4,0.4C43.2-57.4,43.4-57.6,43.4-57.8L43.4-57.8z"/>
		<path d="M50.1-57.8c0-0.2-0.1-0.4-0.3-0.4c-0.2,0-0.4,0.1-0.4,0.3c0,0,0,0.1,0,0.1c0,0.2,0.1,0.4,0.3,0.4c0.2,0,0.4-0.1,0.4-0.3
			C50.1-57.7,50.1-57.8,50.1-57.8z"/>
		<path d="M56.7-57.8c0-0.2-0.1-0.4-0.3-0.4c0,0,0,0,0,0c-0.2,0-0.4,0.2-0.4,0.4c0,0,0,0,0,0c0,0.2,0.1,0.4,0.3,0.4
			C56.6-57.4,56.7-57.6,56.7-57.8C56.7-57.8,56.7-57.8,56.7-57.8z"/>
		<path d="M63.4-57.8c0-0.2-0.1-0.4-0.3-0.4c0,0,0,0,0,0c-0.2,0-0.4,0.2-0.4,0.4c0,0,0,0,0,0c0,0.2,0.1,0.4,0.3,0.4c0,0,0,0,0,0
			C63.3-57.4,63.4-57.6,63.4-57.8z"/>
		<path d="M3.4-64.5c0-0.2-0.1-0.4-0.3-0.4c0,0,0,0,0,0c-0.2,0-0.4,0.2-0.4,0.4c0,0,0,0,0,0c0,0.2,0.1,0.4,0.3,0.4
			C3.3-64.1,3.4-64.3,3.4-64.5z"/>
		<path d="M10.1-64.5c0-0.2-0.2-0.4-0.3-0.4s-0.4,0.2-0.4,0.3c0,0,0,0,0,0c0,0.2,0.2,0.4,0.3,0.4S10.1-64.3,10.1-64.5
			C10.1-64.5,10.1-64.5,10.1-64.5z"/>
		<path d="M16.7-64.5c0-0.2-0.1-0.4-0.3-0.4c-0.2,0-0.4,0.1-0.4,0.3c0,0,0,0.1,0,0.1c0,0.2,0.1,0.4,0.3,0.4c0.2,0,0.4-0.1,0.4-0.3
			C16.7-64.4,16.7-64.4,16.7-64.5z"/>
		<path d="M23.4-64.5c0-0.2-0.1-0.4-0.3-0.4c0,0,0,0,0,0c-0.2,0-0.4,0.2-0.4,0.4c0,0,0,0,0,0c0,0.2,0.1,0.4,0.4,0.4
			C23.3-64.1,23.4-64.3,23.4-64.5C23.4-64.5,23.4-64.5,23.4-64.5z"/>
		<path d="M30.1-64.5c0-0.2-0.1-0.4-0.3-0.4c0,0,0,0,0,0c-0.2,0-0.4,0.2-0.4,0.4c0,0,0,0,0,0c0,0.2,0.1,0.4,0.3,0.4c0,0,0,0,0,0
			C29.9-64.1,30.1-64.3,30.1-64.5z"/>
		<path d="M36.7-64.5c0-0.2-0.1-0.4-0.3-0.4c-0.2,0-0.4,0.1-0.4,0.3c0,0,0,0.1,0,0.1c0,0.2,0.1,0.4,0.3,0.4c0.2,0,0.4-0.1,0.4-0.3
			C36.7-64.4,36.7-64.4,36.7-64.5z"/>
		<path d="M43.4-64.5c0-0.2-0.2-0.3-0.3-0.3c-0.2,0-0.4,0.2-0.4,0.3s0.2,0.3,0.4,0.3C43.2-64.1,43.4-64.3,43.4-64.5z"/>
		<ellipse cx="49.7" cy="-64.5" rx="0.3" ry="0.4"/>
		<ellipse cx="56.4" cy="-64.5" rx="0.3" ry="0.4"/>
		<ellipse cx="63" cy="-64.5" rx="0.3" ry="0.4"/>
	</g>
</pattern>
<pattern  y="237.3" width="67.6" height="67.6" patternUnits="userSpaceOnUse" id="New_Pattern_4" viewBox="0 -67.6 67.6 67.6" style="overflow:visible;">
	<g>
		<rect y="-67.6" class="st0" width="67.6" height="67.6"/>
		<rect y="-67.6" class="st0" width="67.6" height="67.6"/>
		<path class="st1" d="M3.4-4.5c0-0.2-0.2-0.4-0.4-0.4c-0.2,0-0.4,0.2-0.3,0.4c0,0.2,0.1,0.4,0.3,0.4c0,0,0,0,0,0
			C3.3-4.1,3.4-4.3,3.4-4.5C3.4-4.5,3.4-4.5,3.4-4.5z"/>
		<path class="st1" d="M10.1-4.5c0-0.2-0.2-0.4-0.3-0.4S9.4-4.7,9.4-4.5c0,0,0,0,0,0c0,0.2,0.2,0.4,0.3,0.4S10.1-4.3,10.1-4.5
			C10.1-4.5,10.1-4.5,10.1-4.5z"/>
		<path class="st1" d="M16.7-4.5c0-0.2-0.1-0.4-0.3-0.4c-0.2,0-0.4,0.1-0.4,0.3c0,0,0,0.1,0,0.1c0,0.2,0.1,0.4,0.3,0.4
			c0.2,0,0.4-0.1,0.4-0.3C16.7-4.4,16.7-4.4,16.7-4.5z"/>
		<path class="st1" d="M23.4-4.5c0-0.2-0.1-0.4-0.3-0.4c0,0,0,0,0,0c-0.2,0-0.4,0.2-0.4,0.4c0,0.2,0.1,0.4,0.3,0.4c0,0,0,0,0,0
			C23.2-4.1,23.4-4.2,23.4-4.5C23.4-4.5,23.4-4.5,23.4-4.5z"/>
		<path class="st1" d="M30.1-4.5c0-0.2-0.1-0.4-0.4-0.4c-0.2,0-0.4,0.2-0.4,0.4c0,0,0,0,0,0c0,0.2,0.1,0.4,0.3,0.4c0,0,0,0,0,0
			C29.9-4.1,30.1-4.3,30.1-4.5C30.1-4.5,30.1-4.5,30.1-4.5z"/>
		<path class="st1" d="M36.7-4.5c0-0.2-0.1-0.4-0.3-0.4c-0.2,0-0.4,0.1-0.4,0.3c0,0,0,0.1,0,0.1c0,0.2,0.1,0.4,0.3,0.4
			c0.2,0,0.4-0.1,0.4-0.3C36.7-4.4,36.7-4.4,36.7-4.5z"/>
		<path class="st1" d="M43.4-4.5c0-0.2-0.2-0.4-0.3-0.4c-0.2,0-0.4,0.2-0.4,0.4s0.2,0.4,0.4,0.4C43.2-4.1,43.4-4.3,43.4-4.5z"/>
		<path class="st1" d="M50.1-4.5c0-0.2-0.1-0.4-0.3-0.4c-0.2,0-0.4,0.1-0.4,0.3c0,0,0,0.1,0,0.1c0,0.2,0.1,0.4,0.3,0.4
			c0.2,0,0.4-0.1,0.4-0.3C50.1-4.4,50.1-4.4,50.1-4.5z"/>
		<path class="st1" d="M56.7-4.5c0-0.2-0.1-0.4-0.3-0.4c0,0,0,0,0,0c-0.2,0-0.4,0.2-0.4,0.4c0,0,0,0,0,0c0,0.2,0.1,0.4,0.3,0.4
			c0,0,0,0,0,0C56.5-4.1,56.7-4.2,56.7-4.5C56.7-4.4,56.7-4.5,56.7-4.5z"/>
		<path class="st1" d="M63.4-4.5c0-0.2-0.1-0.4-0.3-0.4c-0.2,0-0.4,0.2-0.4,0.4c0,0,0,0,0,0c0,0.2,0.1,0.4,0.3,0.4c0,0,0,0,0,0
			C63.3-4.1,63.4-4.3,63.4-4.5C63.4-4.5,63.4-4.5,63.4-4.5z"/>
		<path class="st1" d="M3.4-11.1c0-0.2-0.2-0.4-0.4-0.4c-0.2,0-0.4,0.2-0.3,0.5c0,0.2,0.2,0.3,0.3,0.3C3.3-10.8,3.4-10.9,3.4-11.1
			C3.4-11.1,3.4-11.1,3.4-11.1z"/>
		<path class="st1" d="M10.1-11.1c0-0.2-0.2-0.3-0.4-0.3S9.3-11.2,9.4-11c0,0.2,0.2,0.3,0.3,0.3C9.9-10.8,10.1-10.9,10.1-11.1z"/>
		<path class="st1" d="M16.7-11.1c0-0.2-0.1-0.4-0.3-0.4c-0.2,0-0.4,0.1-0.4,0.3c0,0,0,0.1,0,0.1c0,0.2,0.1,0.4,0.3,0.4
			c0.2,0,0.4-0.1,0.4-0.3C16.7-11.1,16.7-11.1,16.7-11.1z"/>
		<path class="st1" d="M23.4-11.1c0-0.2-0.1-0.4-0.3-0.4c0,0,0,0,0,0c-0.2,0-0.4,0.1-0.4,0.3c0,0.2,0.1,0.4,0.3,0.4
			C23.2-10.7,23.4-10.9,23.4-11.1C23.4-11.1,23.4-11.1,23.4-11.1z"/>
		<path class="st1" d="M30.1-11.1c0-0.2-0.1-0.4-0.4-0.4c-0.2,0-0.4,0.2-0.3,0.5c0,0.2,0.2,0.3,0.3,0.3
			C29.9-10.8,30.1-10.9,30.1-11.1z"/>
		<path class="st1" d="M36.7-11.1c0-0.2-0.2-0.3-0.4-0.3c-0.2,0-0.3,0.2-0.3,0.4c0,0.2,0.2,0.3,0.4,0.3
			C36.6-10.8,36.8-10.9,36.7-11.1C36.7-11.1,36.7-11.1,36.7-11.1z"/>
		<path class="st1" d="M43.4-11.1c0-0.2-0.2-0.3-0.4-0.3c-0.2,0-0.3,0.2-0.3,0.4c0,0.2,0.2,0.3,0.3,0.3
			C43.3-10.8,43.4-10.9,43.4-11.1z"/>
		<path class="st1" d="M50.1-11.1c0-0.2-0.1-0.4-0.3-0.4c-0.2,0-0.4,0.1-0.4,0.3c0,0,0,0.1,0,0.1c0,0.2,0.1,0.4,0.3,0.4
			c0.2,0,0.4-0.1,0.4-0.3C50.1-11.1,50.1-11.1,50.1-11.1z"/>
		<path class="st1" d="M56.7-11.1c0-0.2-0.1-0.4-0.3-0.4c0,0,0,0,0,0c-0.2,0-0.4,0.1-0.4,0.3c0,0.2,0.1,0.4,0.3,0.4
			C56.5-10.7,56.7-10.9,56.7-11.1C56.7-11.1,56.7-11.1,56.7-11.1z"/>
		<path class="st1" d="M63.4-11.1c0-0.2-0.1-0.4-0.3-0.4c-0.2,0-0.4,0.2-0.3,0.5c0,0.2,0.2,0.3,0.3,0.3
			C63.3-10.8,63.4-10.9,63.4-11.1z"/>
		<path class="st1" d="M3.4-17.8c0-0.2-0.1-0.4-0.3-0.4c0,0,0,0,0,0c-0.2,0-0.4,0.2-0.4,0.4c0,0,0,0,0,0c0,0.2,0.1,0.4,0.3,0.4
			C3.3-17.4,3.4-17.6,3.4-17.8z"/>
		<path class="st1" d="M10.1-17.8c0-0.2-0.2-0.4-0.3-0.4S9.4-18,9.4-17.8c0,0,0,0,0,0c0,0.2,0.2,0.4,0.3,0.4S10.1-17.6,10.1-17.8
			C10.1-17.8,10.1-17.8,10.1-17.8z"/>
		<path class="st1" d="M16.7-17.8c0-0.2-0.1-0.4-0.3-0.4c-0.2,0-0.4,0.1-0.4,0.3c0,0,0,0.1,0,0.1c0,0.2,0.1,0.4,0.3,0.4
			c0.2,0,0.4-0.1,0.4-0.3C16.7-17.7,16.7-17.8,16.7-17.8z"/>
		<path class="st1" d="M23.4-17.8c0-0.2-0.1-0.4-0.3-0.4c0,0,0,0,0,0c-0.2,0-0.4,0.2-0.4,0.4c0,0,0,0,0,0c0,0.2,0.1,0.4,0.4,0.4
			C23.3-17.4,23.4-17.6,23.4-17.8C23.4-17.8,23.4-17.8,23.4-17.8z"/>
		<path class="st1" d="M30.1-17.8c0-0.2-0.1-0.4-0.3-0.4c0,0,0,0,0,0c-0.2,0-0.4,0.2-0.4,0.4c0,0,0,0,0,0c0,0.2,0.1,0.4,0.3,0.4
			c0,0,0,0,0,0C29.9-17.4,30.1-17.6,30.1-17.8z"/>
		<path class="st1" d="M36.7-17.8c0-0.2-0.1-0.4-0.3-0.4c-0.2,0-0.4,0.1-0.4,0.3c0,0,0,0.1,0,0.1c0,0.2,0.1,0.4,0.3,0.4
			c0.2,0,0.4-0.1,0.4-0.3C36.7-17.7,36.7-17.8,36.7-17.8z"/>
		<path class="st1" d="M43.4-17.8c0-0.2-0.2-0.4-0.3-0.4c-0.2,0-0.4,0.2-0.4,0.4s0.2,0.4,0.4,0.4C43.2-17.4,43.4-17.6,43.4-17.8z"/>
		<path class="st1" d="M50.1-17.8c0-0.2-0.1-0.4-0.3-0.4c-0.2,0-0.4,0.1-0.4,0.3c0,0,0,0.1,0,0.1c0,0.2,0.1,0.4,0.3,0.4
			c0.2,0,0.4-0.1,0.4-0.3C50.1-17.7,50.1-17.8,50.1-17.8z"/>
		<path class="st1" d="M56.7-17.8c0-0.2-0.1-0.4-0.3-0.4c0,0,0,0,0,0c-0.2,0-0.4,0.2-0.4,0.4c0,0,0,0,0,0c0,0.2,0.1,0.4,0.3,0.4
			C56.6-17.4,56.7-17.6,56.7-17.8C56.7-17.8,56.7-17.8,56.7-17.8z"/>
		<path class="st1" d="M63.4-17.8c0-0.2-0.1-0.4-0.3-0.4c0,0,0,0,0,0c-0.2,0-0.4,0.2-0.4,0.4c0,0,0,0,0,0c0,0.2,0.1,0.4,0.3,0.4
			c0,0,0,0,0,0C63.3-17.4,63.4-17.6,63.4-17.8z"/>
		<path class="st1" d="M3.4-24.5c0-0.2-0.2-0.4-0.4-0.4c-0.2,0-0.4,0.2-0.3,0.4c0,0.2,0.1,0.4,0.3,0.4c0,0,0,0,0,0
			C3.3-24.1,3.4-24.3,3.4-24.5C3.4-24.5,3.4-24.5,3.4-24.5z"/>
		<path class="st1" d="M10.1-24.5c0-0.2-0.2-0.4-0.3-0.4s-0.4,0.2-0.4,0.3c0,0,0,0,0,0c0,0.2,0.2,0.4,0.3,0.4S10.1-24.3,10.1-24.5
			C10.1-24.5,10.1-24.5,10.1-24.5z"/>
		<path class="st1" d="M16.7-24.5c0-0.2-0.1-0.4-0.3-0.4c-0.2,0-0.4,0.1-0.4,0.3c0,0,0,0.1,0,0.1c0,0.2,0.1,0.4,0.3,0.4
			c0.2,0,0.4-0.1,0.4-0.3C16.7-24.4,16.7-24.4,16.7-24.5z"/>
		<path class="st1" d="M23.4-24.5c0-0.2-0.1-0.4-0.3-0.4c0,0,0,0,0,0c-0.2,0-0.4,0.2-0.4,0.4c0,0.2,0.1,0.4,0.3,0.4c0,0,0,0,0,0
			C23.2-24.1,23.4-24.2,23.4-24.5C23.4-24.5,23.4-24.5,23.4-24.5z"/>
		<path class="st1" d="M30.1-24.5c0-0.2-0.1-0.4-0.4-0.4c-0.2,0-0.4,0.2-0.4,0.4c0,0,0,0,0,0c0,0.2,0.1,0.4,0.3,0.4c0,0,0,0,0,0
			C29.9-24.1,30.1-24.3,30.1-24.5C30.1-24.5,30.1-24.5,30.1-24.5z"/>
		<path class="st1" d="M36.7-24.5c0-0.2-0.1-0.4-0.3-0.4c-0.2,0-0.4,0.1-0.4,0.3c0,0,0,0.1,0,0.1c0,0.2,0.1,0.4,0.3,0.4
			c0.2,0,0.4-0.1,0.4-0.3C36.7-24.4,36.7-24.4,36.7-24.5z"/>
		<path class="st1" d="M43.4-24.5c0-0.2-0.2-0.4-0.3-0.4c-0.2,0-0.4,0.2-0.4,0.4s0.2,0.4,0.4,0.4C43.2-24.1,43.4-24.3,43.4-24.5
			L43.4-24.5z"/>
		<path class="st1" d="M50.1-24.5c0-0.2-0.1-0.4-0.3-0.4c-0.2,0-0.4,0.1-0.4,0.3c0,0,0,0.1,0,0.1c0,0.2,0.1,0.4,0.3,0.4
			c0.2,0,0.4-0.1,0.4-0.3C50.1-24.4,50.1-24.4,50.1-24.5z"/>
		<path class="st1" d="M56.7-24.5c0-0.2-0.1-0.4-0.3-0.4c0,0,0,0,0,0c-0.2,0-0.4,0.2-0.3,0.4c0,0.2,0.1,0.4,0.3,0.4c0,0,0,0,0,0
			C56.6-24.1,56.7-24.2,56.7-24.5C56.7-24.5,56.7-24.5,56.7-24.5z"/>
		<path class="st1" d="M63.4-24.5c0-0.2-0.1-0.4-0.3-0.4c-0.2,0-0.4,0.2-0.4,0.4c0,0,0,0,0,0c0,0.2,0.1,0.4,0.3,0.4c0,0,0,0,0,0
			C63.3-24.1,63.4-24.3,63.4-24.5C63.4-24.5,63.4-24.5,63.4-24.5z"/>
		<path class="st1" d="M3.4-31.1c0-0.2-0.2-0.4-0.4-0.4c-0.2,0-0.4,0.2-0.3,0.4c0,0.2,0.1,0.4,0.3,0.4c0,0,0,0,0,0
			C3.3-30.8,3.4-30.9,3.4-31.1C3.4-31.1,3.4-31.1,3.4-31.1z"/>
		<path class="st1" d="M10.1-31.1c0-0.2-0.2-0.4-0.3-0.4s-0.4,0.2-0.4,0.3c0,0,0,0,0,0c0,0.2,0.2,0.4,0.3,0.4S10.1-30.9,10.1-31.1
			C10.1-31.1,10.1-31.1,10.1-31.1z"/>
		<path class="st1" d="M16.7-31.1c0-0.2-0.1-0.4-0.3-0.4c-0.2,0-0.4,0.1-0.4,0.3c0,0,0,0.1,0,0.1c0,0.2,0.1,0.4,0.3,0.4
			c0.2,0,0.4-0.1,0.4-0.3C16.7-31.1,16.7-31.1,16.7-31.1z"/>
		<path class="st1" d="M23.4-31.1c0-0.2-0.1-0.4-0.3-0.4c0,0,0,0,0,0c-0.2,0-0.4,0.2-0.4,0.4c0,0.2,0.1,0.4,0.3,0.4c0,0,0,0,0,0
			C23.2-30.8,23.4-30.9,23.4-31.1C23.4-31.1,23.4-31.1,23.4-31.1z"/>
		<path class="st1" d="M30.1-31.1c0-0.2-0.1-0.4-0.4-0.4c-0.2,0-0.4,0.2-0.4,0.4c0,0,0,0,0,0c0,0.2,0.1,0.4,0.3,0.4c0,0,0,0,0,0
			C29.9-30.8,30.1-30.9,30.1-31.1C30.1-31.1,30.1-31.1,30.1-31.1z"/>
		<path class="st1" d="M36.7-31.1c0-0.2-0.1-0.4-0.3-0.4c-0.2,0-0.4,0.1-0.4,0.3c0,0,0,0.1,0,0.1c0,0.2,0.1,0.4,0.3,0.4
			c0.2,0,0.4-0.1,0.4-0.3C36.7-31.1,36.7-31.1,36.7-31.1z"/>
		<path class="st1" d="M43.4-31.1c0-0.2-0.2-0.4-0.3-0.4c-0.2,0-0.4,0.2-0.4,0.4s0.2,0.4,0.4,0.4C43.2-30.8,43.4-30.9,43.4-31.1z"/>
		<path class="st1" d="M50.1-31.1c0-0.2-0.1-0.4-0.3-0.4c-0.2,0-0.4,0.1-0.4,0.3c0,0,0,0.1,0,0.1c0,0.2,0.1,0.4,0.3,0.4
			c0.2,0,0.4-0.1,0.4-0.3C50.1-31.1,50.1-31.1,50.1-31.1z"/>
		<path class="st1" d="M56.7-31.1c0-0.2-0.1-0.4-0.3-0.4c0,0,0,0,0,0c-0.2,0-0.4,0.2-0.3,0.4c0,0.2,0.1,0.4,0.3,0.4c0,0,0,0,0,0
			C56.6-30.8,56.7-30.9,56.7-31.1C56.7-31.1,56.7-31.1,56.7-31.1z"/>
		<path class="st1" d="M63.4-31.1c0-0.2-0.1-0.4-0.3-0.4c-0.2,0-0.4,0.2-0.4,0.4c0,0,0,0,0,0c0,0.2,0.1,0.4,0.3,0.4c0,0,0,0,0,0
			C63.3-30.8,63.4-30.9,63.4-31.1C63.4-31.1,63.4-31.1,63.4-31.1z"/>
		<path class="st1" d="M3.4-37.8c0-0.2-0.1-0.4-0.3-0.4c0,0,0,0,0,0c-0.2,0-0.4,0.2-0.4,0.4c0,0,0,0,0,0c0,0.2,0.1,0.4,0.3,0.4
			C3.3-37.4,3.4-37.6,3.4-37.8z"/>
		<path class="st1" d="M10.1-37.8c0-0.2-0.2-0.4-0.3-0.4c-0.2,0-0.4,0.2-0.4,0.3c0,0,0,0,0,0c0,0.2,0.2,0.4,0.3,0.4
			C9.9-37.4,10.1-37.6,10.1-37.8C10.1-37.8,10.1-37.8,10.1-37.8z"/>
		<path class="st1" d="M16.7-37.8c0-0.2-0.1-0.4-0.3-0.4c-0.2,0-0.4,0.1-0.4,0.3c0,0,0,0.1,0,0.1c0,0.2,0.1,0.4,0.3,0.4
			c0.2,0,0.4-0.1,0.4-0.3C16.7-37.7,16.7-37.8,16.7-37.8z"/>
		<path class="st1" d="M23.4-37.8c0-0.2-0.1-0.4-0.3-0.4c0,0,0,0,0,0c-0.2,0-0.4,0.2-0.4,0.4c0,0,0,0,0,0c0,0.2,0.1,0.4,0.4,0.4
			C23.3-37.4,23.4-37.6,23.4-37.8C23.4-37.8,23.4-37.8,23.4-37.8z"/>
		<path class="st1" d="M30.1-37.8c0-0.2-0.1-0.4-0.3-0.4c0,0,0,0,0,0c-0.2,0-0.4,0.2-0.4,0.4c0,0,0,0,0,0c0,0.2,0.1,0.4,0.3,0.4
			c0,0,0,0,0,0C29.9-37.4,30.1-37.6,30.1-37.8z"/>
		<path class="st1" d="M36.7-37.8c0-0.2-0.1-0.4-0.3-0.4c-0.2,0-0.4,0.1-0.4,0.3c0,0,0,0.1,0,0.1c0,0.2,0.1,0.4,0.3,0.4
			c0.2,0,0.4-0.1,0.4-0.3C36.7-37.7,36.7-37.8,36.7-37.8z"/>
		<path class="st1" d="M43.4-37.8c0-0.2-0.2-0.4-0.3-0.4c-0.2,0-0.4,0.2-0.4,0.4s0.2,0.4,0.4,0.4C43.2-37.4,43.4-37.6,43.4-37.8z"/>
		<path class="st1" d="M50.1-37.8c0-0.2-0.1-0.4-0.3-0.4c-0.2,0-0.4,0.1-0.4,0.3c0,0,0,0.1,0,0.1c0,0.2,0.1,0.4,0.3,0.4
			c0.2,0,0.4-0.1,0.4-0.3C50.1-37.7,50.1-37.8,50.1-37.8z"/>
		<path class="st1" d="M56.7-37.8c0-0.2-0.1-0.4-0.3-0.4c0,0,0,0,0,0c-0.2,0-0.4,0.2-0.4,0.4c0,0,0,0,0,0c0,0.2,0.1,0.4,0.3,0.4
			C56.6-37.4,56.7-37.6,56.7-37.8C56.7-37.8,56.7-37.8,56.7-37.8z"/>
		<path class="st1" d="M63.4-37.8c0-0.2-0.1-0.4-0.3-0.4c0,0,0,0,0,0c-0.2,0-0.4,0.2-0.4,0.4c0,0,0,0,0,0c0,0.2,0.1,0.4,0.3,0.4
			c0,0,0,0,0,0C63.3-37.4,63.4-37.6,63.4-37.8z"/>
		<path class="st1" d="M3.4-44.5c0-0.2-0.1-0.4-0.3-0.4c0,0,0,0,0,0c-0.2,0-0.4,0.2-0.4,0.4c0,0.2,0.2,0.4,0.4,0.4
			C3.3-44.1,3.4-44.3,3.4-44.5C3.4-44.5,3.4-44.5,3.4-44.5z"/>
		<path class="st1" d="M10.1-44.5c0-0.2-0.2-0.3-0.4-0.3c-0.2,0-0.3,0.2-0.3,0.4c0,0.2,0.2,0.3,0.3,0.3
			C9.9-44.1,10.1-44.3,10.1-44.5C10.1-44.5,10.1-44.5,10.1-44.5z"/>
		<path class="st1" d="M16.7-44.5c0-0.2-0.2-0.3-0.4-0.3c-0.2,0-0.3,0.2-0.3,0.4c0,0.2,0.2,0.3,0.4,0.3
			C16.6-44.1,16.8-44.3,16.7-44.5C16.7-44.5,16.7-44.5,16.7-44.5z"/>
		<path class="st1" d="M23.4-44.5c0-0.2-0.1-0.4-0.3-0.4c0,0,0,0,0,0c-0.2,0-0.4,0.2-0.4,0.4c0,0.2,0.2,0.4,0.4,0.4
			C23.2-44.1,23.4-44.2,23.4-44.5C23.4-44.5,23.4-44.5,23.4-44.5z"/>
		<path class="st1" d="M30.1-44.5c0-0.2-0.1-0.4-0.3-0.4c0,0,0,0,0,0c-0.2,0-0.4,0.2-0.4,0.4c0,0.2,0.2,0.4,0.4,0.4
			C29.9-44.1,30.1-44.3,30.1-44.5C30.1-44.5,30.1-44.5,30.1-44.5z"/>
		<path class="st1" d="M36.7-44.5c0-0.2-0.2-0.3-0.4-0.3c-0.2,0-0.3,0.2-0.3,0.4c0,0.2,0.2,0.3,0.4,0.3
			C36.6-44.1,36.7-44.3,36.7-44.5C36.7-44.5,36.7-44.5,36.7-44.5z"/>
		<path class="st1" d="M43.4-44.5c0-0.2-0.2-0.3-0.4-0.3c-0.2,0-0.3,0.2-0.3,0.4c0,0.2,0.2,0.3,0.3,0.3
			C43.3-44.1,43.4-44.3,43.4-44.5C43.4-44.5,43.4-44.5,43.4-44.5z"/>
		<path class="st1" d="M50.1-44.5c0-0.2-0.2-0.3-0.4-0.3c-0.2,0-0.3,0.2-0.3,0.4c0,0.2,0.2,0.3,0.4,0.3
			C49.9-44.1,50.1-44.3,50.1-44.5C50.1-44.5,50.1-44.5,50.1-44.5z"/>
		<path class="st1" d="M56.7-44.5c0-0.2-0.1-0.4-0.3-0.4c0,0,0,0,0,0c-0.2,0-0.4,0.2-0.4,0.4c0,0.2,0.2,0.4,0.4,0.4
			C56.6-44.1,56.7-44.2,56.7-44.5C56.7-44.5,56.7-44.5,56.7-44.5z"/>
		<path class="st1" d="M63.4-44.5c0-0.2-0.1-0.4-0.3-0.4c0,0,0,0,0,0c-0.2,0-0.4,0.2-0.4,0.4c0,0.2,0.2,0.4,0.4,0.4
			C63.3-44.1,63.4-44.3,63.4-44.5C63.4-44.5,63.4-44.5,63.4-44.5z"/>
		<path class="st1" d="M3.4-51.1c0-0.2-0.2-0.4-0.4-0.4c-0.2,0-0.4,0.2-0.3,0.4c0,0.2,0.1,0.4,0.3,0.4c0,0,0,0,0,0
			C3.3-50.8,3.4-50.9,3.4-51.1C3.4-51.1,3.4-51.1,3.4-51.1z"/>
		<path class="st1" d="M10.1-51.1c0-0.2-0.2-0.4-0.3-0.4c-0.2,0-0.4,0.2-0.4,0.3c0,0,0,0,0,0c0,0.2,0.2,0.4,0.3,0.4
			C9.9-50.8,10.1-50.9,10.1-51.1C10.1-51.1,10.1-51.1,10.1-51.1z"/>
		<path class="st1" d="M16.7-51.1c0-0.2-0.1-0.4-0.3-0.4c-0.2,0-0.4,0.1-0.4,0.3c0,0,0,0.1,0,0.1c0,0.2,0.1,0.4,0.3,0.4
			c0.2,0,0.4-0.1,0.4-0.3C16.7-51.1,16.7-51.1,16.7-51.1z"/>
		<path class="st1" d="M23.4-51.1c0-0.2-0.1-0.4-0.3-0.4c0,0,0,0,0,0c-0.2,0-0.4,0.2-0.4,0.4c0,0.2,0.1,0.4,0.3,0.4c0,0,0,0,0,0
			C23.2-50.8,23.4-50.9,23.4-51.1C23.4-51.1,23.4-51.1,23.4-51.1z"/>
		<path class="st1" d="M30.1-51.1c0-0.2-0.1-0.4-0.4-0.4c-0.2,0-0.4,0.2-0.4,0.4c0,0,0,0,0,0c0,0.2,0.1,0.4,0.3,0.4c0,0,0,0,0,0
			C29.9-50.8,30.1-50.9,30.1-51.1C30.1-51.1,30.1-51.1,30.1-51.1z"/>
		<path class="st1" d="M36.7-51.1c0-0.2-0.1-0.4-0.3-0.4c-0.2,0-0.4,0.1-0.4,0.3c0,0,0,0.1,0,0.1c0,0.2,0.1,0.4,0.3,0.4
			c0.2,0,0.4-0.1,0.4-0.3C36.7-51.1,36.7-51.1,36.7-51.1z"/>
		<path class="st1" d="M43.4-51.1c0-0.2-0.2-0.3-0.3-0.4c-0.2,0-0.4,0.2-0.4,0.4l0,0c0,0.2,0.2,0.3,0.4,0.3
			C43.2-50.8,43.4-50.9,43.4-51.1z"/>
		<path class="st1" d="M50.1-51.1c0-0.2-0.1-0.4-0.3-0.4c-0.2,0-0.4,0.1-0.4,0.3c0,0,0,0.1,0,0.1c0,0.2,0.1,0.4,0.3,0.4
			c0.2,0,0.4-0.1,0.4-0.3C50.1-51.1,50.1-51.1,50.1-51.1z"/>
		<path class="st1" d="M56.7-51.1c0-0.2-0.1-0.4-0.3-0.4c0,0,0,0,0,0c-0.2,0-0.4,0.2-0.3,0.4c0,0.2,0.1,0.4,0.3,0.4c0,0,0,0,0,0
			C56.6-50.8,56.7-50.9,56.7-51.1C56.7-51.1,56.7-51.1,56.7-51.1z"/>
		<path class="st1" d="M63.4-51.1c0-0.2-0.1-0.4-0.3-0.4c-0.2,0-0.4,0.2-0.4,0.4c0,0,0,0,0,0c0,0.2,0.1,0.4,0.3,0.4c0,0,0,0,0,0
			C63.3-50.8,63.4-50.9,63.4-51.1C63.4-51.1,63.4-51.1,63.4-51.1z"/>
		<path class="st1" d="M3.4-57.8c0-0.2-0.1-0.4-0.3-0.4c0,0,0,0,0,0c-0.2,0-0.4,0.2-0.4,0.4c0,0,0,0,0,0c0,0.2,0.1,0.4,0.3,0.4
			C3.3-57.4,3.4-57.6,3.4-57.8z"/>
		<path class="st1" d="M10.1-57.8c0-0.2-0.2-0.4-0.3-0.4c-0.2,0-0.4,0.2-0.4,0.3c0,0,0,0,0,0c0,0.2,0.2,0.4,0.3,0.4
			C9.9-57.4,10.1-57.6,10.1-57.8C10.1-57.8,10.1-57.8,10.1-57.8z"/>
		<path class="st1" d="M16.7-57.8c0-0.2-0.1-0.4-0.3-0.4c-0.2,0-0.4,0.1-0.4,0.3c0,0,0,0.1,0,0.1c0,0.2,0.1,0.4,0.3,0.4
			c0.2,0,0.4-0.1,0.4-0.3C16.7-57.7,16.7-57.8,16.7-57.8z"/>
		<path class="st1" d="M23.4-57.8c0-0.2-0.1-0.4-0.3-0.4c0,0,0,0,0,0c-0.2,0-0.4,0.2-0.4,0.4c0,0,0,0,0,0c0,0.2,0.1,0.4,0.4,0.4
			C23.3-57.4,23.4-57.6,23.4-57.8C23.4-57.8,23.4-57.8,23.4-57.8z"/>
		<path class="st1" d="M30.1-57.8c0-0.2-0.1-0.4-0.3-0.4c0,0,0,0,0,0c-0.2,0-0.4,0.2-0.4,0.4c0,0,0,0,0,0c0,0.2,0.1,0.4,0.3,0.4
			c0,0,0,0,0,0C29.9-57.4,30.1-57.6,30.1-57.8z"/>
		<path class="st1" d="M36.7-57.8c0-0.2-0.1-0.4-0.3-0.4c-0.2,0-0.4,0.1-0.4,0.3c0,0,0,0.1,0,0.1c0,0.2,0.1,0.4,0.3,0.4
			c0.2,0,0.4-0.1,0.4-0.3C36.7-57.7,36.7-57.8,36.7-57.8z"/>
		<path class="st1" d="M43.4-57.8c0-0.2-0.2-0.4-0.4-0.3c-0.2,0-0.3,0.2-0.3,0.3s0.2,0.4,0.4,0.4C43.2-57.4,43.4-57.6,43.4-57.8
			L43.4-57.8z"/>
		<path class="st1" d="M50.1-57.8c0-0.2-0.1-0.4-0.3-0.4c-0.2,0-0.4,0.1-0.4,0.3c0,0,0,0.1,0,0.1c0,0.2,0.1,0.4,0.3,0.4
			c0.2,0,0.4-0.1,0.4-0.3C50.1-57.7,50.1-57.8,50.1-57.8z"/>
		<path class="st1" d="M56.7-57.8c0-0.2-0.1-0.4-0.3-0.4c0,0,0,0,0,0c-0.2,0-0.4,0.2-0.4,0.4c0,0,0,0,0,0c0,0.2,0.1,0.4,0.3,0.4
			C56.6-57.4,56.7-57.6,56.7-57.8C56.7-57.8,56.7-57.8,56.7-57.8z"/>
		<path class="st1" d="M63.4-57.8c0-0.2-0.1-0.4-0.3-0.4c0,0,0,0,0,0c-0.2,0-0.4,0.2-0.4,0.4c0,0,0,0,0,0c0,0.2,0.1,0.4,0.3,0.4
			c0,0,0,0,0,0C63.3-57.4,63.4-57.6,63.4-57.8z"/>
		<path class="st1" d="M3.4-64.5c0-0.2-0.1-0.4-0.3-0.4c0,0,0,0,0,0c-0.2,0-0.4,0.2-0.4,0.4c0,0,0,0,0,0c0,0.2,0.1,0.4,0.3,0.4
			C3.3-64.1,3.4-64.3,3.4-64.5z"/>
		<path class="st1" d="M10.1-64.5c0-0.2-0.2-0.4-0.3-0.4s-0.4,0.2-0.4,0.3c0,0,0,0,0,0c0,0.2,0.2,0.4,0.3,0.4S10.1-64.3,10.1-64.5
			C10.1-64.5,10.1-64.5,10.1-64.5z"/>
		<path class="st1" d="M16.7-64.5c0-0.2-0.1-0.4-0.3-0.4c-0.2,0-0.4,0.1-0.4,0.3c0,0,0,0.1,0,0.1c0,0.2,0.1,0.4,0.3,0.4
			c0.2,0,0.4-0.1,0.4-0.3C16.7-64.4,16.7-64.4,16.7-64.5z"/>
		<path class="st1" d="M23.4-64.5c0-0.2-0.1-0.4-0.3-0.4c0,0,0,0,0,0c-0.2,0-0.4,0.2-0.4,0.4c0,0,0,0,0,0c0,0.2,0.1,0.4,0.4,0.4
			C23.3-64.1,23.4-64.3,23.4-64.5C23.4-64.5,23.4-64.5,23.4-64.5z"/>
		<path class="st1" d="M30.1-64.5c0-0.2-0.1-0.4-0.3-0.4c0,0,0,0,0,0c-0.2,0-0.4,0.2-0.4,0.4c0,0,0,0,0,0c0,0.2,0.1,0.4,0.3,0.4
			c0,0,0,0,0,0C29.9-64.1,30.1-64.3,30.1-64.5z"/>
		<path class="st1" d="M36.7-64.5c0-0.2-0.1-0.4-0.3-0.4c-0.2,0-0.4,0.1-0.4,0.3c0,0,0,0.1,0,0.1c0,0.2,0.1,0.4,0.3,0.4
			c0.2,0,0.4-0.1,0.4-0.3C36.7-64.4,36.7-64.4,36.7-64.5z"/>
		<path class="st1" d="M43.4-64.5c0-0.2-0.2-0.3-0.3-0.3c-0.2,0-0.4,0.2-0.4,0.3s0.2,0.3,0.4,0.3C43.2-64.1,43.4-64.3,43.4-64.5z"/>
		<ellipse class="st1" cx="49.7" cy="-64.5" rx="0.3" ry="0.4"/>
		<ellipse class="st1" cx="56.4" cy="-64.5" rx="0.3" ry="0.4"/>
		<ellipse class="st1" cx="63" cy="-64.5" rx="0.3" ry="0.4"/>
	</g>
</pattern>
<g id="Layer_2_1_">
	<g id="OBJECTS">
		<path class="st2" d="M124,13.7l0.4-0.3c1.1-0.7,2.6-0.6,3.7,0.2c0.3,0.3,0.5,0.6,0.6,1c0.4,1.4-0.5,2.9-1.2,4
			c-1.6,2.7-3.5,5.1-5.7,7.3c-0.7,0.7,1.7,4.5,2,5.2c0.7,1.6,1.3,3.4,1.6,5.1c0.4,2.1,1,4.4-1.1,5.9c-2.9,2-5.1-0.4-6.5-2.9
			c-1.9-3.5-3.6-7-5.1-10.7c-1-2.4,0.4-4.2,2.1-6s3.3-3.5,5.1-5.1C121.1,16.1,122.5,14.8,124,13.7z"/>
		<path class="st2" d="M92.7,12.7c0-0.9,0.2-1.8,0.5-2.7c0.6-1.3,2.1-2.3,3.3-3.1c3.7-2.5,7.6-4.7,11.6-6.6c2.7-1.2,4.9,1,3.5,3.7
			c-2,3.7-5.6,6-9.2,8.1c-0.4,0.2-0.8,0.5-1,0.9c-0.1,0.3-0.1,0.6-0.1,0.9c0.2,2.6,1.6,4.9,1.8,7.5c0.2,2.2-1.2,5.8-3.4,6.6
			c-3.2,1.2-5.5-4-6.1-6.3c-0.5-2.2-0.8-4.4-0.9-6.6C92.8,14.3,92.7,13.5,92.7,12.7z"/>
		<polygon class="st3" points="60.8,207.1 50,237.1 46.5,237.1 50,203.8 		"/>
		<polygon class="st3" points="170.5,207.1 181.4,237.1 184.9,237.1 181.3,203.8 		"/>
		<path class="st4" d="M162.8,37.1c-8.3,1.6-16.7,2.5-25.2,2.5c-8.9,0.1-17.6-0.6-26.5-1.1s-17.4,1.7-26.2,1.2c-2-0.1-4.1-0.4-6-1
			c-1.4-0.5-2.7-1.1-4-1.7L46.5,214.4l142-1.6L164.3,36.8L162.8,37.1z"/>
		<pattern  id="SVGID_1_" xlink:href="#New_Pattern" patternTransform="matrix(1 0 0 -1 53.86 -15956.0801)">
		</pattern>
		<path class="st5" d="M178.8,211.9H54.7c-3.7,0-6.8-3-6.8-6.8l0,0c0-3.7,3-6.8,6.8-6.8h124.1c3.7,0,6.8,3,6.8,6.8l0,0
			C185.5,208.9,182.5,211.9,178.8,211.9z"/>
		<pattern  id="SVGID_2_" xlink:href="#New_Pattern" patternTransform="matrix(1 0 0 -1 53.86 -15956.0801)">
		</pattern>
		<path class="st6" d="M176.7,150.4l-18-111.9l-1.5,0.3c-7.8,1.3-15.7,2-23.6,2c-8.3,0.1-16.5-0.5-24.8-0.9s-16.4,1.4-24.6,1
			c-1.9,0-3.8-0.3-5.6-0.8c-1.3-0.4-2.6-0.8-3.8-1.4L53.8,150.4H176.7z"/>
		<path class="st7" d="M74.7,33.7c-1.3-0.9-2.8-1.3-4.4-1.2c-4.5,0.4-4.4,5.7-5.6,9.1l-3.4,9.7c-2.9,8.3-5.8,16.5-8.7,24.8l-16.6,47
			L3.1,157.6c-3.1,3.3-3,8.4,0.2,11.6c0.2,0.1,0.3,0.3,0.5,0.4c0.9,0.7,1.7,1.4,2.7,2c9,5.9,14.1,0.9,30.2,14s9.9,28.8,9.9,28.8
			l26-59.6l0.6-10.3l3.3-60.4c0.6-9.8,1.1-19.7,1.6-29.5c0.2-3.4,0.4-6.7,0.6-10.1c0.2-4.2,0.8-7-3-10.1
			C75.3,34.2,75,33.9,74.7,33.7z"/>
		<path class="st7" d="M230,157.6l-32.9-34.5l-15.3-43.4c-3.2-9.2-6.5-18.4-9.7-27.6c-1.2-3.3-2.3-6.6-3.5-9.9
			c-1.3-3.7-1.8-7-6.6-6.8c-8.8,0.3-7.8,4-7.4,10.4c0.4,7.7,0.8,15.4,1.3,23.1l3.4,60.8l1.4,25.1l26,59.6c0,0-6.2-15.6,9.9-28.8
			c4.9-4.1,10.4-7.4,16.3-9.7c2.7-1,5.6-1.1,8.4-2.1c3.2-1,6.1-2.6,8.7-4.8C233.1,166.1,232.9,160.7,230,157.6z"/>
		<pattern  id="SVGID_3_" xlink:href="#New_Pattern_4" patternTransform="matrix(1 0 0 -1 53.86 -15956.0801)">
		</pattern>
		<path class="st8" d="M74.3,33.7c-1.2-0.8-2.7-1.2-4.1-1.1c-4.2,0.3-4.1,5.4-5.2,8.6l-3.2,9.1l-8.2,23.2L38,117.5L7.1,149.8
			c-2.9,3.1-2.8,7.9,0.2,10.8c0.1,0.1,0.3,0.3,0.4,0.4c0.8,0.7,1.6,1.3,2.5,1.9c8.5,5.5,13.2,0.8,28.3,13.1s9.2,27,9.2,27l24.4-55.9
			c0.2-3.2,0.4-6.4,0.5-9.6c1.1-18.9,2.1-37.8,3.1-56.7l1.5-27.7c0.2-3.2,0.3-6.3,0.5-9.5c0.2-4,0.8-6.6-2.8-9.4
			C74.9,34.1,74.6,33.8,74.3,33.7z"/>
		<pattern  id="SVGID_4_" xlink:href="#New_Pattern_4" patternTransform="matrix(1 0 0 -1 53.86 -15956.0801)">
		</pattern>
		<path class="st9" d="M220.3,149.2l-30.9-32.3c-4.8-13.6-9.5-27.2-14.3-40.7L166,50.3c-1.1-3.1-2.2-6.2-3.3-9.3
			c-1.2-3.5-1.6-6.6-6.2-6.4c-8.2,0.3-7.3,3.8-7,9.7l1.2,21.7l3.1,57.1l1.3,23.6l24.4,55.8c0,0-5.8-14.6,9.3-27
			c4.5-3.9,9.7-6.9,15.3-9.1c2.5-0.9,5.3-1.1,7.9-2c3-0.9,5.7-2.5,8.1-4.5C223.2,157.2,223.1,152.1,220.3,149.2z"/>
		<path class="st10" d="M196.2,122.9c-6.3,1.2-12.6,2.8-18.2,5.9s-10.4,8.1-12.4,14.2"/>
		<path d="M133.2,77.7c3.3,6,6.8,12,10.1,18c1.5,2.8,3,5.7,5.3,8c2.5,2.5,6.1,2.8,9.5,2.8c2.5-0.1,4.9-0.3,7.4-0.6
			c1.4-0.1,2.7-0.5,3.9-1.3c0.9-0.8,1.5-1.9,1.8-3c4.7-13.1-2.8-25.2-10.5-35.3l-2.3-3c-4.6-6-9.9-11.2-15.1-16.5
			c-6-6.1-12.3-11.9-18.8-17.4c-0.9,0.9-11.2,5.7-10.9,6.5c1.1,3.1,2.3,6.1,3.5,9.1C121.5,56.3,127.2,67.1,133.2,77.7z"/>
		<path d="M168.1,89.4c-1.8-0.4-3.7-0.6-5.5-0.8c-2.4-0.2-4.8-0.6-7.2-1.3c-2.3-0.7-4.1-1.5-6.5-1.1c-2.8,0.5-5.2,2.2-7.5,3.9
			c-9.8,7.5-18.5,16.3-25.8,26.3c-1.6,2.1-2.5,4.6-3.8,6.9c-1.5,2.8-2.7,5.7-3.6,8.8c-1.8,6.2-1.7,12.8,0.1,18.9
			c1.3,4.6,1.9,7.2,6.5,9.2c4.1,1.7,8.7,2.4,11.7,5.9c1.9,2.3,3.8,4.4,7.9,2c3.4-2,5-6,6.3-9.7c3.4-9.7,9-18.3,14.1-27.1
			c2.4-4.1,4.2-8.3,6.9-12.3c2.9-4.3,5.5-8.9,7.6-13.7c2.1-4.8,3.1-10,3-15.2C170.9,90.1,169.5,89.8,168.1,89.4z"/>
		<path class="st11" d="M128.6,72.9c-0.1-0.6-0.3-1.1-0.5-1.7c-2.4-7.6-5.2-15-8.4-22.3c-2.8-6.8-6-13.5-9.3-20.1
			c-2.1-4.1-4-8.4-6.3-12.4c-0.2-0.3-0.4-0.6-0.6-0.9c-3.8,1.2-7.6,2.1-11.5,3c-0.6,2.8-0.1,7.8,0,9.4c0.1,18.3,1.8,37,6.4,54.9
			c0.4,1.2,0.5,2.4,0.5,3.6c-0.2,1.5-0.8,3-1.6,4.3c-7.9,14.4-13.9,29.6-20.6,44.5c-5.3,11.8-4.8,30.2,4.2,40c1.7,1.9,3.8,3.5,6,4.8
			c6.4,3.7,14.8,6.8,21.8,2.8c8.6-4.9,8.4-13.1,8.5-21.5c0.2-7.4,1-14.7,2.3-22c0.5-2.7,1.9-5.4,3-8.1c2.3-5.6,2.4-12,3.5-17.9
			c1.2-6.5,2.7-13,3.4-19.6C130.5,86.8,130.1,79.7,128.6,72.9z"/>
		<path class="st2" d="M208.2,149.1c-1-6.3-5.1-12-9.6-16.6c-1.2-1.2-2.5-2.4-3.8-3.5c-7.2-5.9-15.8-9.8-24.3-13.6
			c-1.4,1.6-2.7,3.4-3.8,5.3c-1,1.7-2,3.5-2.8,5.3c2.4,1.7,4.8,3.3,7.1,5.1c3.6,2.6,7.1,5.5,9.6,9.1c0.9,1.6,1.7,3.3,2.3,5.1
			c0.9,4.4,1.3,6.7-1.5,10.3c-3.2,4.2-14.3,11.6-18,15.4c-5.8,5.9-9.6,15.5,0.3,21.6c6.8,4.2,10.6,0.3,16.1-4.6
			S211,167.4,208.2,149.1z"/>
		<path class="st12" d="M123.3,99.8c0.8,4.6,4,21.9,4.8,26.3c0.1,0.6,0.7,0.9,1.2,0.8l38.3-7.5c0.5-0.1,0.9-0.6,0.8-1.1
			c0,0,0-0.1,0-0.1l-4.8-25c-0.1-0.5-0.6-0.9-1.1-0.9c0,0,0,0-0.1,0l-38.2,6.3C123.6,98.7,123.2,99.3,123.3,99.8z"/>
		<g>
			<defs>
				<path id="SVGID_5_" d="M123.3,99.8c0.8,4.6,4,21.9,4.8,26.3c0.1,0.6,0.7,0.9,1.2,0.8l38.3-7.5c0.5-0.1,0.9-0.6,0.8-1.1
					c0,0,0-0.1,0-0.1l-4.8-25c-0.1-0.5-0.6-0.9-1.1-0.9c0,0,0,0-0.1,0l-38.2,6.3C123.6,98.7,123.2,99.3,123.3,99.8z"/>
			</defs>
			<clipPath id="SVGID_6_">
				<use xlink:href="#SVGID_5_"  style="overflow:visible;"/>
			</clipPath>
			<g class="st13">
				<path class="st14" d="M125.5,97.6c0.8,4.6,4.3,26.1,5.1,30.6c0.1,0.6,36.1-7.5,36.1-7.5l-5.6-28.9C161,91.2,125.4,97,125.5,97.6
					z"/>
			</g>
		</g>
		<path class="st15" d="M148,150.4c-1.1-0.9-2.3-1.6-3.6-2.1c-4.7-1.7-9.5-1.2-14.3-0.5c-5,0.7-10,1.5-14.9,2.6
			c-13.5,2.9-27,7-36.2,18c-2.8,3.3-2.6,5.4,0.4,8.2c2.7,2.5,5.5,4.8,8.4,7c17.7,13.1,39.3,19.9,61.3,19.5c1.2,0,2.3-0.1,3.5-0.2
			c8.7-0.6,34.3-7.8,28.2-21.1c-1-1.8-2.2-3.4-3.7-4.7C167.9,167.8,158.7,158,148,150.4z"/>
		<path class="st16" d="M171,205.6c1.7,1.2,3.4,2.5,5,3.8c3.4,2.9,7.9,5,12.4,4.5s8.8-4.1,9.1-8.6c0.4-5.2-4.3-9.8-7.5-13.3
			c-2.9-3.3-6.4-5.3-10.9-5.3c-2.7,0-5.6,1.3-6.8,3.8c-2.9-2.5-6.5-5-9.8-2c-2.7,2.6-4,6.2-3.6,9.9c0,0.4,0.1,0.7,0.4,1
			c0.2,0.2,0.5,0.4,0.8,0.4C164,201.4,167.6,203.3,171,205.6z"/>
		<path d="M192.1,214.6c2.2-1.1,4-2.8,5.2-4.9c1.3-2.1,2.7-5.2,2.2-7.7c-0.6-3.5-3-6.7-4.6-9.8c-0.8-1.5-1.9-3.1-3.6-3.2
			c-0.7,0-1.3,0.2-1.9,0.5c-1.6,0.9-2.9,2.3-3.7,4c-0.3,0.6-0.3,1.5-0.9,2s-1.9,0.2-2.6,0.4c-2,0.5-2.8,3.1-4.7,3.8
			c-1.1,0.4-2.3,0-3.5-0.1c-2.2-0.3-5.7,1.5-5.4,4.1c0.3,1.2,1.1,2.3,2.1,3.1c4.9,4.4,12.9,10.5,20,8.4
			C191.1,215.1,191.6,214.8,192.1,214.6z"/>
		<path class="st17" d="M169.3,106.8c-0.1-0.3-0.2-0.5-0.4-0.7c-0.7-0.4-1.6-0.2-2,0.5c0,0,0,0,0,0.1c-0.4,0.7-0.5,1.5-0.5,2.4
			c-0.3,5.3-3.9,10.1-0.2,15c1.4,1.9,4.6,2.8,4.9-0.5c0.2-1.7-0.7-3.2-1.4-4.6C167.8,114.8,170.8,110.7,169.3,106.8z"/>
		<path class="st16" d="M171.4,197.4c-1.2,1.6-1.4,3.7-0.4,5.5c0.9,1.2,2.6,1.6,4,1.1c1.1-0.5,2-1.5,2.3-2.7
			c0.4-1.2,0.5-2.4,0.3-3.6"/>
		<path class="st17" d="M128.7,122.4c0.4,1,0.9,2,1.6,2.9c2,3.2,2,6.5,0.4,10c-0.6,1.5-1.6,2.7-2.9,3.6c-1.5,0.8-3.3,0.3-4.2-1.1
			c-0.3-0.5-0.5-1.2-0.4-1.8c0.1-2.6,2.3-5.7,4.1-7.4c0.3-0.3-2.7-6-3-6.7c-0.8-1.9,0-3.7,2-4.6c0.3-0.1,0.6-0.2,0.9-0.2
			c0.7,0.2,1.2,0.8,1.2,1.5c0,0.7,0,1.3-0.1,2C128.3,121.2,128.5,121.8,128.7,122.4z"/>
		<path class="st2" d="M140.4,179.3c-2.6-0.7-5.2-1.6-7.6-2.7c-4-2.2-7.9-3.9-11.5-6.9c-1.2-0.9-2.2-2-2.9-3.4
			c-2.2-5.1,2.7-11,5.2-15l9.8-15.7c0,0-6.4-4.3-7-4.6c-0.8-0.5-1.6-0.9-2.4-1.2c-0.9-0.2-0.4-0.5-1.4-0.2c-0.5,0.1-1.2,0.9-1.7,1.3
			c-4,3-7.7,6.3-11.2,9.9c-6.8,7.1-13.2,15.2-15.7,24.8c-2.8,10.7,4.5,18.6,12.4,24.4c4.8,3.5,9.8,6.8,15.4,8.7
			c4.8,1.7,9.8,1.5,14.7,2.7c3.5,0.9,7.6,1.2,10.6-1.1s4.1-6.8,3.5-10.4c-0.5-3.5-2.6-6.6-5.6-8.5
			C143.7,180.5,142.1,179.8,140.4,179.3z"/>
		<path class="st18" d="M176.3,191.4c0.3-1.8,1.7-3.2,3.5-3.4"/>
		<path class="st10" d="M34.7,123.9c7.1-0.9,14.7-1.8,20.9,1.8c4.9,2.8,7.9,8,10.6,12.9"/>
		<path class="st10" d="M0.2,163c0.6-1.2,1.4-2.2,2.4-3c3.8-3.1,9.4-3,13.9-1s8,5.6,11.4,9.1l9.3,9.5"/>
		<path class="st10" d="M231.9,162c-0.2-1.2-0.9-2.2-2-2.8c-3.2-1.7-8.3-0.1-11.5,1.1c-3.6,1.4-6.9,3.3-9.8,5.8
			c-5.1,4.3-9,9.8-12.4,15.5"/>
		<path class="st2" d="M194.8,129.1c-7.2-5.9-15.8-9.8-24.3-13.6c-1.4,1.6-2.7,3.4-3.8,5.3c-1,1.7-2,3.5-2.8,5.3
			c2.4,1.7,4.8,3.3,7.1,5.1"/>
		<path class="st19" d="M143,98.9l-7.3,1.3c0.3,1.3,0.6,2.7,0.8,4.1c0.1,0.5,0.2,1,0.3,1.5l7.3-1.3
			C143.8,102.6,143.4,100.8,143,98.9z"/>
		<path class="st19" d="M154.1,102.7l6.6-1.2l-1.1-5.6l-6.8,1.2C153.2,99,153.6,100.9,154.1,102.7z"/>
		<path class="st20" d="M151.7,97.4l-7.7,1.3c0.4,1.9,0.8,3.7,1.1,5.6l7.8-1.4C152.6,101.1,152.1,99.2,151.7,97.4z"/>
		<path class="st20" d="M135.4,104c-0.2-1.2-0.5-2.4-0.8-3.7l-6.9,1.2c0,0.3,1.1,5.6,1.1,5.6l7-1.2
			C135.6,105.3,135.5,104.7,135.4,104z"/>
		<path class="st20" d="M144.7,107l-7.3,1.3c0.3,1.3,0.6,2.7,0.8,4.1c0.1,0.5,0.2,1,0.3,1.5l7.3-1.3
			C145.4,110.7,145.1,108.8,144.7,107z"/>
		<polygon class="st21" points="161.2,104.3 145.9,106.8 148.7,120.7 163.9,117.6 		"/>
		<polygon class="st19" points="161.4,103.3 146.1,105.8 149,119.6 164.2,116.6 		"/>
		<path class="st19" d="M137.1,112.1c-0.2-1.2-0.5-2.4-0.8-3.6l-6.9,1.2l1.1,5.6l7-1.2C137.3,113.4,137.2,112.7,137.1,112.1z"/>
	</g>
</g>
</svg>
